<svg width="31" height="36" viewBox="0 0 31 36" fill="none" xmlns="http://www.w3.org/2000/svg">
<path d="M2.6477 29.0394C2.6477 29.0394 11.1887 25.5813 13.2719 18.1374C15.3551 10.6935 13.0775 5.12451 13.0775 5.12451C13.0775 5.12451 4.99474 6.41608 1.53667 13.3044C-1.9214 20.1928 1.35613 27.47 2.6477 29.0394Z" fill="url(#paint0_linear_2036_4642)"/>
<path d="M6.24463 28.8034C6.24463 28.8034 12.7997 24.9703 14.6468 18.4569C15.6786 14.8183 15.714 10.1242 15.1328 6.86058C14.9523 5.84677 13.694 1.37488 12.8414 0C14.0218 1.5832 15.98 4.66631 16.7716 6.51339C17.5632 8.36047 18.7992 12.9296 20.188 13.0684C21.5768 13.2073 23.0072 11.9574 23.9794 10.527C24.9515 9.09653 25.9654 7.24945 25.9654 7.24945C25.9654 7.24945 24.9932 12.2074 22.5906 16.346C20.5491 19.5818 18.0493 22.8316 13.5357 25.5397C9.56383 27.7201 7.84173 28.2478 6.24463 28.8034Z" fill="url(#paint1_linear_2036_4642)"/>
<path d="M26.5208 10.4299C26.5208 10.4299 27.1022 11.066 27.4235 11.5132C28.1219 12.4853 28.2707 12.9297 28.2707 12.9297C28.2707 12.9297 26.3264 17.8183 22.8266 21.7068C19.3269 25.5954 15.0633 28.2619 12.1608 29.3729C9.25823 30.484 4.07807 31.4561 0.564453 30.9422C4.50858 30.6784 9.02213 29.3729 11.6608 28.1786C14.8688 26.7266 18.9519 23.9706 21.2573 20.7347C23.5627 17.4988 25.9236 13.4297 26.5208 10.4299Z" fill="url(#paint2_linear_2036_4642)"/>
<path d="M29.2845 15.2766C29.2845 15.2766 29.6039 16.2071 29.7011 16.6098C29.7983 17.0265 30.0205 18.318 30.0205 18.318C30.0205 18.318 28.8678 20.4012 27.5763 21.915C26.2847 23.4427 22.5489 26.9007 19.7296 28.3867C16.9104 29.8588 13.1885 30.4005 13.1885 30.4005C13.1885 30.4005 18.4797 29.4422 23.1044 24.2759C26.2014 20.9151 27.5763 18.9291 29.2845 15.2766Z" fill="url(#paint3_linear_2036_4642)"/>
<path d="M30.0342 21.1511C30.0342 21.1511 28.3816 24.4148 24.368 27.2757C21.7571 29.3727 19.2017 30.1504 17.0769 30.9559C18.9379 30.5393 21.396 30.3865 24.4374 28.5811C28.1038 26.4146 29.4648 24.887 29.4648 24.887C29.4648 24.887 30.1176 23.7759 30.0342 21.1511Z" fill="url(#paint4_linear_2036_4642)"/>
<path d="M8.46905 33.6863C8.46905 33.6863 12.2367 36.0665 17.1212 35.4557C22.0052 34.8588 25.3683 32.0142 26.5947 30.6944C27.8072 29.3742 28.0121 29.2064 28.5066 28.0224C27.0797 29.516 23.9548 31.4933 21.002 32.5038C18.2602 33.4421 15.6472 33.8628 12.9642 33.8959C10.2811 33.929 8.46905 33.6863 8.46905 33.6863Z" fill="url(#paint5_linear_2036_4642)"/>
<path d="M23.8128 7.62432C23.8128 9.00493 22.6625 10.1241 21.2436 10.1241C19.8246 10.1241 18.6743 9.00493 18.6743 7.62432C18.6743 6.24371 19.8246 5.12451 21.2436 5.12451C22.6625 5.12451 23.8128 6.24371 23.8128 7.62432Z" fill="#62B4FF"/>
<defs>
<linearGradient id="paint0_linear_2036_4642" x1="7.07494" y1="5.12451" x2="7.07494" y2="29.0394" gradientUnits="userSpaceOnUse">
<stop stop-color="#FF6DC5"/>
<stop offset="1" stop-color="#2A74E2"/>
</linearGradient>
<linearGradient id="paint1_linear_2036_4642" x1="17.0077" y1="8.45768" x2="14.0913" y2="27.8312" gradientUnits="userSpaceOnUse">
<stop stop-color="#48B2FF"/>
<stop offset="1" stop-color="#1981CC"/>
</linearGradient>
<linearGradient id="paint2_linear_2036_4642" x1="14.4176" y1="10.4299" x2="1.57747" y2="31.0241" gradientUnits="userSpaceOnUse">
<stop stop-color="#428BFA"/>
<stop offset="1" stop-color="#6AC1FF"/>
</linearGradient>
<linearGradient id="paint3_linear_2036_4642" x1="29.9723" y1="16.3008" x2="21.6045" y2="30.4005" gradientUnits="userSpaceOnUse">
<stop stop-color="#52B6FF"/>
<stop offset="1" stop-color="#3DADFF"/>
</linearGradient>
<linearGradient id="paint4_linear_2036_4642" x1="29.4464" y1="22.0849" x2="17.3523" y2="31.0241" gradientUnits="userSpaceOnUse">
<stop stop-color="#4ABEFF"/>
<stop offset="1" stop-color="#50ABFF"/>
</linearGradient>
<linearGradient id="paint5_linear_2036_4642" x1="8.44136" y1="34.0883" x2="28.4819" y2="29.1472" gradientUnits="userSpaceOnUse">
<stop stop-color="#3DA2EC"/>
<stop offset="1" stop-color="#88CDFF"/>
</linearGradient>
</defs>
</svg>
