<svg width="149" height="16" viewBox="0 0 149 16" fill="none" xmlns="http://www.w3.org/2000/svg">
<path d="M3.59787 6.70684H16.8832C16.9144 6.70684 16.9456 6.72243 16.9612 6.73803C16.9768 6.75362 16.9924 6.78481 16.9924 6.81599V8.71836C16.9924 8.74955 16.9768 8.78073 16.9612 8.79632C16.9456 8.81192 16.9144 8.82751 16.8832 8.82751H3.59787V10.7611C3.59787 11.0417 3.70703 11.2912 3.90974 11.5095C4.11245 11.7122 4.36194 11.8214 4.65821 11.8214H18.6453C18.6765 11.8214 18.7076 11.837 18.7232 11.8526C18.7388 11.8682 18.7544 11.8994 18.7544 11.915V13.8173C18.7544 13.8485 18.7388 13.8797 18.7232 13.8953C18.7076 13.9109 18.6765 13.9265 18.6453 13.9265H4.65821C3.67584 13.9265 2.8494 13.5834 2.1633 12.8973C1.4772 12.2112 1.13416 11.3848 1.13416 10.4024V5.11634C1.13416 4.13397 1.4772 3.30753 2.1633 2.62143C2.8494 1.93533 3.67584 1.59229 4.65821 1.59229H18.6453C18.6765 1.59229 18.7076 1.60788 18.7232 1.62347C18.7388 1.63906 18.7544 1.67025 18.7544 1.70144V3.6038C18.7544 3.63499 18.7388 3.65058 18.7232 3.66618C18.7076 3.68177 18.6765 3.69736 18.6453 3.69736H4.65821C4.36194 3.69736 4.11245 3.80651 3.90974 4.00922C3.70703 4.21194 3.59787 4.46143 3.59787 4.7577V6.70684Z" fill="white"/>
<path fill-rule="evenodd" clip-rule="evenodd" d="M3.31308 3.07837C3.18212 3.16786 3.05673 3.27296 2.93566 3.39403C2.45544 3.87425 2.22647 4.4224 2.22647 5.11648V10.4026C2.22647 11.0966 2.45544 11.6448 2.93566 12.125C3.05673 12.2461 3.18212 12.3512 3.31308 12.4407C3.25209 12.3913 3.1934 12.3384 3.13717 12.2821L3.12287 12.2678L3.10911 12.253C2.74627 11.8623 2.50534 11.3555 2.50534 10.7612V4.75783C2.50534 4.16163 2.73692 3.63715 3.13717 3.2369C3.1934 3.18067 3.25209 3.12777 3.31308 3.07837ZM1.39074 1.84911C2.28272 0.957128 3.38744 0.5 4.6581 0.5H18.6452C18.985 0.5 19.2889 0.64448 19.4956 0.85115C19.7023 1.05783 19.8467 1.36173 19.8467 1.70157V3.60394C19.8467 4.09693 19.5457 4.38996 19.4997 4.43478C19.4979 4.43646 19.4966 4.43779 19.4956 4.43877C19.2889 4.64544 18.985 4.78992 18.6452 4.78992H4.69019V5.61456H16.8831C17.223 5.61456 17.5269 5.75904 17.7336 5.9657C17.9402 6.17238 18.0847 6.47629 18.0847 6.81613V8.71849C18.0847 9.05834 17.9402 9.36224 17.7336 9.56892C17.5269 9.77559 17.223 9.92007 16.8831 9.92007H4.69019V10.7291H18.6452C18.985 10.7291 19.2889 10.8736 19.4956 11.0803C19.6115 11.1961 19.6819 11.3159 19.7217 11.3954L19.7225 11.397C19.7465 11.445 19.8467 11.6453 19.8467 11.9151V13.8175C19.8467 14.1573 19.7023 14.4612 19.4956 14.6679C19.2889 14.8746 18.985 15.019 18.6452 15.019H4.6581C3.38744 15.019 2.28272 14.5619 1.39074 13.6699C0.498754 12.7779 0.041626 11.6732 0.041626 10.4026V5.11648C0.041626 3.84582 0.498754 2.74109 1.39074 1.84911Z" fill="white"/>
<path d="M40.0859 13.8329C40.0859 13.8641 40.0703 13.8797 40.0547 13.8953C40.0391 13.9109 40.0079 13.9265 39.9923 13.9265H26.0053C25.0229 13.9265 24.1964 13.5834 23.5104 12.8973C22.8243 12.2112 22.4812 11.3848 22.4812 10.4024V1.70144C22.4812 1.67025 22.4968 1.63906 22.5124 1.62347C22.528 1.60788 22.5592 1.59229 22.5748 1.59229H24.8358C24.867 1.59229 24.8981 1.60788 24.9137 1.62347C24.9293 1.63906 24.9449 1.67025 24.9449 1.70144V10.7611C24.9449 11.0417 25.0541 11.2912 25.2568 11.5095C25.4595 11.7122 25.709 11.8214 26.0053 11.8214H39.9923C40.0235 11.8214 40.0391 11.837 40.0547 11.8526C40.0703 11.8682 40.0859 11.8994 40.0859 11.915V13.8329Z" fill="white"/>
<path fill-rule="evenodd" clip-rule="evenodd" d="M23.5735 2.68485V10.4026C23.5735 11.0966 23.8025 11.6448 24.2827 12.125C24.4038 12.2461 24.5292 12.3512 24.6601 12.4407C24.5991 12.3913 24.5404 12.3384 24.4842 12.2821L24.4699 12.2678L24.4562 12.253C24.0933 11.8623 23.8524 11.3555 23.8524 10.7612V2.68485H23.5735ZM22.0565 0.624266C22.1046 0.600227 22.3049 0.5 22.5747 0.5H24.8357C25.1755 0.5 25.4794 0.64448 25.6861 0.85115C25.8928 1.05783 26.0372 1.36173 26.0372 1.70157V10.7291H39.9922C40.4852 10.7291 40.7783 11.0302 40.823 11.0762C40.8247 11.0779 40.8261 11.0793 40.827 11.0803C40.9429 11.1961 41.0134 11.3159 41.0531 11.3954L41.0539 11.397C41.078 11.445 41.1782 11.6453 41.1782 11.9151V13.833C41.1782 14.3261 40.8771 14.6191 40.8311 14.6639C40.8294 14.6656 40.828 14.6669 40.827 14.6679C40.7112 14.7838 40.5914 14.8542 40.5119 14.894L40.5103 14.8948C40.4623 14.9188 40.262 15.019 39.9922 15.019H26.0051C24.7345 15.019 23.6298 14.5619 22.7378 13.6699C21.8458 12.7779 21.3887 11.6732 21.3887 10.4026V1.70157C21.3887 1.36168 21.5332 1.05779 21.7398 0.85115C21.8557 0.735289 21.9754 0.664829 22.0549 0.62508C22.0554 0.624819 22.056 0.624548 22.0565 0.624266Z" fill="white"/>
<path d="M46.2451 6.70684H59.5305C59.5616 6.70684 59.5928 6.72243 59.6084 6.73803C59.624 6.75362 59.6396 6.78481 59.6396 6.81599V8.71836C59.6396 8.74955 59.624 8.78073 59.6084 8.79632C59.5928 8.81192 59.5616 8.82751 59.5305 8.82751H46.2451V10.7611C46.2451 11.0417 46.3542 11.2912 46.557 11.5095C46.7597 11.7122 47.0092 11.8214 47.3054 11.8214H61.2925C61.3237 11.8214 61.3549 11.837 61.3705 11.8526C61.386 11.8682 61.4016 11.8994 61.4016 11.915V13.8173C61.4016 13.8485 61.386 13.8797 61.3705 13.8953C61.3549 13.9109 61.3237 13.9265 61.2925 13.9265H47.3054C46.3231 13.9265 45.4966 13.5834 44.8105 12.8973C44.1244 12.2112 43.7814 11.3848 43.7814 10.4024V5.11634C43.7814 4.13397 44.1244 3.30753 44.8105 2.62143C45.4966 1.93533 46.3231 1.59229 47.3054 1.59229H61.2925C61.3237 1.59229 61.3549 1.60788 61.3705 1.62347C61.386 1.63906 61.4016 1.67025 61.4016 1.70144V3.6038C61.4016 3.63499 61.386 3.65058 61.3705 3.66618C61.3549 3.68177 61.3237 3.69736 61.2925 3.69736H47.3054C47.0092 3.69736 46.7597 3.80651 46.557 4.00922C46.3542 4.21194 46.2451 4.46143 46.2451 4.7577V6.70684Z" fill="white"/>
<path fill-rule="evenodd" clip-rule="evenodd" d="M45.9604 3.07838C45.8294 3.16787 45.7041 3.27296 45.583 3.39403C45.1028 3.87425 44.8738 4.4224 44.8738 5.11648V10.4026C44.8738 11.0966 45.1028 11.6448 45.583 12.125C45.7041 12.2461 45.8294 12.3512 45.9604 12.4407C45.8994 12.3913 45.8407 12.3384 45.7845 12.2821L45.7702 12.2678L45.7564 12.253C45.3936 11.8623 45.1527 11.3555 45.1527 10.7612V4.75783C45.1527 4.16163 45.3843 3.63715 45.7845 3.2369C45.8407 3.18067 45.8994 3.12778 45.9604 3.07838ZM44.0381 1.84911C44.9301 0.957128 46.0348 0.5 47.3054 0.5H61.2925C61.6324 0.5 61.9363 0.64448 62.1429 0.85115C62.3496 1.05779 62.4941 1.36168 62.4941 1.70157V3.60394C62.4941 4.09697 62.193 4.39002 62.147 4.43478C62.1453 4.43646 62.1439 4.43779 62.1429 4.43877C61.9363 4.64544 61.6324 4.78992 61.2925 4.78992H47.3375V5.61456H59.5305C59.8703 5.61456 60.1742 5.75904 60.3809 5.9657C60.5875 6.17234 60.7321 6.47623 60.7321 6.81613V8.71849C60.7321 9.05839 60.5875 9.36228 60.3809 9.56892C60.1742 9.77559 59.8703 9.92007 59.5305 9.92007H47.3375V10.7291H61.2925C61.6324 10.7291 61.9363 10.8736 62.1429 11.0803C62.2588 11.1961 62.3292 11.3158 62.369 11.3953L62.3698 11.3969C62.3938 11.445 62.4941 11.6453 62.4941 11.9151V13.8175C62.4941 14.1574 62.3496 14.4612 62.1429 14.6679C61.9362 14.8746 61.6323 15.019 61.2925 15.019H47.3054C46.0348 15.019 44.9301 14.5619 44.0381 13.6699C43.1461 12.7779 42.689 11.6732 42.689 10.4026V5.11648C42.689 3.84582 43.1461 2.74109 44.0381 1.84911Z" fill="white"/>
<path d="M65.1128 5.10075C65.1128 4.13397 65.4558 3.30753 66.1419 2.62143C66.828 1.93533 67.6545 1.59229 68.6368 1.59229H79.209C80.1758 1.59229 81.0178 1.93533 81.7039 2.62143C82.39 3.30753 82.7331 4.13397 82.7331 5.10075V13.8173C82.7331 13.8485 82.7175 13.8797 82.7019 13.8953C82.6863 13.9109 82.6551 13.9265 82.6239 13.9265H80.3629C80.3317 13.9265 80.3161 13.9109 80.3005 13.8953C80.2849 13.8797 80.2693 13.8485 80.2693 13.8173V9.87225H67.5765V13.8173C67.5765 13.8485 67.5609 13.8797 67.5453 13.8953C67.5297 13.9109 67.4985 13.9265 67.483 13.9265H65.2219C65.1908 13.9265 65.1596 13.9109 65.144 13.8953C65.1284 13.8797 65.1128 13.8485 65.1128 13.8173V5.10075ZM80.2693 7.76718V4.7577C80.2693 4.46143 80.1602 4.21194 79.9575 4.00922C79.7548 3.80651 79.5053 3.69736 79.209 3.69736H68.6368C68.3406 3.69736 68.0911 3.80651 67.8884 4.00922C67.6857 4.21194 67.5765 4.46143 67.5765 4.7577V7.75158H80.2693V7.76718Z" fill="white"/>
<path fill-rule="evenodd" clip-rule="evenodd" d="M67.2918 3.07836C67.1609 3.16785 67.0355 3.27296 66.9144 3.39403C66.4323 3.8761 66.2052 4.42502 66.2052 5.10088V12.8342H66.4841V4.75783C66.4841 4.16163 66.7157 3.63715 67.1159 3.2369C67.1722 3.18067 67.2309 3.12776 67.2918 3.07836ZM80.5654 3.08762C80.6223 3.13436 80.6772 3.18417 80.73 3.2369C81.1302 3.63715 81.3618 4.16163 81.3618 4.75783V7.76731H80.2694V8.77997H81.3618V12.8342H81.6407V5.10088C81.6407 4.42502 81.4135 3.8761 80.9315 3.39403C80.8147 3.27721 80.6928 3.17516 80.5654 3.08762ZM79.1769 6.6593V4.78992H68.669V6.6593H79.1769ZM65.3695 1.84911C66.2615 0.957128 67.3662 0.5 68.6369 0.5H79.209C80.4615 0.5 81.5826 0.955296 82.4764 1.84911C83.3665 2.73924 83.8255 3.8432 83.8255 5.10088V13.8175C83.8255 14.1574 83.681 14.4612 83.4743 14.6679C83.2677 14.8746 82.9638 15.019 82.6239 15.019H80.3629C79.8699 15.019 79.5769 14.718 79.5321 14.672C79.5304 14.6702 79.5291 14.6689 79.5281 14.6679C79.3215 14.4612 79.1769 14.1574 79.1769 13.8175V10.9648H68.669V13.8175C68.669 14.1574 68.5244 14.4612 68.3178 14.6679C68.2019 14.7837 68.0822 14.8542 68.0027 14.894L68.0011 14.8948C67.953 14.9188 67.7528 15.019 67.483 15.019H65.222C64.8821 15.019 64.5782 14.8746 64.3715 14.6679C64.1649 14.4612 64.0204 14.1574 64.0204 13.8175V5.10088C64.0204 3.84319 64.4794 2.73924 65.3695 1.84911Z" fill="white"/>
<path d="M86.4442 1.70144C86.4442 1.67025 86.4598 1.63906 86.4754 1.62347C86.491 1.60788 86.5222 1.59229 86.5378 1.59229H103.955C103.987 1.59229 104.002 1.60788 104.018 1.62347C104.033 1.63906 104.049 1.67025 104.049 1.70144V3.6038C104.049 3.63499 104.033 3.65058 104.018 3.66618C104.002 3.68177 103.971 3.69736 103.955 3.69736H96.4862V13.8173C96.4862 13.8485 96.4706 13.8797 96.455 13.8953C96.4394 13.9109 96.4082 13.9265 96.3927 13.9265H94.1316C94.1005 13.9265 94.0693 13.9109 94.0537 13.8953C94.0381 13.8797 94.0225 13.8485 94.0225 13.8173V3.69736H86.5534C86.5222 3.69736 86.5066 3.68177 86.491 3.66618C86.4754 3.65058 86.4598 3.6194 86.4598 3.6038V1.70144H86.4442Z" fill="url(#paint0_linear_2036_4651)"/>
<path fill-rule="evenodd" clip-rule="evenodd" d="M95.1149 2.68485V12.8342H95.3938V2.68485H95.1149ZM85.3674 2.794H85.3518V1.70157C85.3518 1.36168 85.4963 1.05779 85.703 0.85115C85.8188 0.735262 85.9386 0.664799 86.0181 0.62506C86.0186 0.624799 86.0192 0.624528 86.0197 0.624246C86.0678 0.600211 86.268 0.5 86.5378 0.5H103.955C104.448 0.5 104.741 0.801125 104.786 0.84708C104.788 0.848807 104.789 0.850173 104.79 0.85115C104.997 1.05779 105.141 1.36168 105.141 1.70157V3.60394C105.141 4.09696 104.84 4.39002 104.794 4.43478C104.793 4.43646 104.791 4.43779 104.79 4.43877C104.674 4.55461 104.555 4.62506 104.475 4.66482L104.474 4.66564C104.425 4.68968 104.225 4.78992 103.955 4.78992H97.5786V13.8175C97.5786 14.1574 97.4341 14.4612 97.2275 14.6679C97.1117 14.7837 96.992 14.8542 96.9124 14.8939L96.9108 14.8947C96.8628 14.9188 96.6625 15.019 96.3927 15.019H94.1317C93.7918 15.019 93.4879 14.8746 93.2812 14.6679C93.0746 14.4612 92.9301 14.1574 92.9301 13.8175V4.78992H86.5534C86.0603 4.78992 85.7673 4.4888 85.7225 4.44284C85.7209 4.44112 85.7195 4.43975 85.7186 4.43877C85.6027 4.32292 85.5322 4.2032 85.4925 4.1237L85.4917 4.12207C85.4676 4.07404 85.3674 3.87375 85.3674 3.60394V2.794Z" fill="url(#paint1_linear_2036_4651)"/>
<path d="M110.224 6.70684H123.509C123.54 6.70684 123.571 6.72243 123.587 6.73803C123.603 6.75362 123.618 6.78481 123.618 6.81599V8.71836C123.618 8.74955 123.603 8.78073 123.587 8.79632C123.571 8.81192 123.54 8.82751 123.509 8.82751H110.224V10.7611C110.224 11.0417 110.333 11.2912 110.536 11.5095C110.738 11.7122 110.988 11.8214 111.284 11.8214H125.271C125.302 11.8214 125.333 11.837 125.349 11.8526C125.365 11.8682 125.38 11.8994 125.38 11.915V13.8173C125.38 13.8485 125.365 13.8797 125.349 13.8953C125.333 13.9109 125.302 13.9265 125.271 13.9265H111.284C110.302 13.9265 109.475 13.5834 108.789 12.8973C108.103 12.2112 107.76 11.3848 107.76 10.4024V5.11634C107.76 4.13397 108.103 3.30753 108.789 2.62143C109.475 1.93533 110.302 1.59229 111.284 1.59229H125.271C125.302 1.59229 125.333 1.60788 125.349 1.62347C125.365 1.63906 125.38 1.67025 125.38 1.70144V3.6038C125.38 3.63499 125.365 3.65058 125.349 3.66618C125.333 3.68177 125.302 3.69736 125.271 3.69736H111.284C110.988 3.69736 110.738 3.80651 110.536 4.00922C110.333 4.21194 110.224 4.46143 110.224 4.7577V6.70684Z" fill="url(#paint2_linear_2036_4651)"/>
<path fill-rule="evenodd" clip-rule="evenodd" d="M109.939 3.0784C109.808 3.16788 109.683 3.27297 109.562 3.39403C109.081 3.87425 108.852 4.4224 108.852 5.11648V10.4026C108.852 11.0966 109.081 11.6448 109.562 12.125C109.683 12.2461 109.808 12.3511 109.939 12.4406C109.878 12.3912 109.819 12.3383 109.763 12.2821L109.749 12.2678L109.735 12.253C109.372 11.8623 109.131 11.3555 109.131 10.7612V4.75783C109.131 4.16163 109.363 3.63715 109.763 3.2369C109.819 3.18068 109.878 3.12779 109.939 3.0784ZM108.017 1.84911C108.909 0.957128 110.013 0.5 111.284 0.5H125.271C125.611 0.5 125.915 0.64448 126.122 0.85115C126.328 1.05779 126.473 1.36168 126.473 1.70157V3.60394C126.473 4.09697 126.172 4.39002 126.126 4.43478C126.124 4.43646 126.123 4.43779 126.122 4.43877C125.915 4.64544 125.611 4.78992 125.271 4.78992H111.316V5.61456H123.509C123.849 5.61456 124.153 5.75904 124.36 5.9657C124.566 6.17234 124.711 6.47623 124.711 6.81613V8.71849C124.711 9.05839 124.566 9.36228 124.36 9.56892C124.153 9.77559 123.849 9.92007 123.509 9.92007H111.316V10.7291H125.271C125.611 10.7291 125.915 10.8736 126.122 11.0803C126.237 11.1961 126.308 11.3158 126.348 11.3953L126.348 11.3969C126.372 11.445 126.473 11.6453 126.473 11.9151V13.8175C126.473 14.1574 126.328 14.4612 126.122 14.6679C125.915 14.8746 125.611 15.019 125.271 15.019H111.284C110.013 15.019 108.909 14.5619 108.017 13.6699C107.125 12.7779 106.668 11.6732 106.668 10.4026V5.11648C106.668 3.84581 107.125 2.74109 108.017 1.84911Z" fill="url(#paint3_linear_2036_4651)"/>
<path d="M146.993 13.7861C147.008 13.8173 147.008 13.8485 146.993 13.8797C146.977 13.9109 146.946 13.9265 146.915 13.9265H144.404C144.357 13.9265 144.326 13.9109 144.311 13.8641L142.471 9.997C142.315 9.68513 142.096 9.45124 141.816 9.26412C141.535 9.077 141.223 8.99904 140.88 8.99904H131.571V13.8173C131.571 13.8485 131.555 13.8797 131.54 13.8953C131.524 13.9109 131.493 13.9265 131.462 13.9265H129.216C129.185 13.9265 129.154 13.9109 129.138 13.8953C129.123 13.8797 129.107 13.8485 129.107 13.8173V1.70144C129.107 1.67025 129.123 1.63906 129.138 1.62347C129.154 1.60788 129.185 1.59229 129.216 1.59229H131.462C131.493 1.59229 131.524 1.60788 131.54 1.62347C131.555 1.63906 131.571 1.67025 131.571 1.70144V6.87837H140.88C141.223 6.87837 141.535 6.78481 141.816 6.61328C142.096 6.42616 142.315 6.19227 142.471 5.8804L144.311 2.0133C144.342 1.96652 144.373 1.95093 144.404 1.95093H146.915C146.946 1.95093 146.977 1.96652 146.993 1.99771C147.008 2.02889 147.008 2.06008 146.993 2.10686L144.856 6.5821C144.607 7.11226 144.264 7.54887 143.827 7.92311C144.248 8.29734 144.591 8.74955 144.856 9.27971L146.993 13.7861Z" fill="url(#paint4_linear_2036_4651)"/>
<path fill-rule="evenodd" clip-rule="evenodd" d="M130.199 2.68485V12.8342H130.478V2.68485H130.199ZM141.32 7.93757C141.695 7.99148 142.069 8.1202 142.421 8.3553C142.846 8.63816 143.199 9.01168 143.448 9.50859L143.452 9.51814L145.03 12.8342H145.332L143.874 9.75879C143.669 9.35068 143.411 9.01471 143.101 8.73973L142.166 7.90828L143.116 7.09381C143.443 6.81375 143.688 6.4991 143.868 6.11708L143.87 6.11162L145.335 3.04349H145.03L143.452 6.35954L143.448 6.36909C143.199 6.866 142.846 7.23951 142.421 7.52237L142.404 7.53433L142.385 7.54556C142.061 7.74346 141.704 7.87866 141.32 7.93757ZM128.366 0.85115C128.572 0.64448 128.876 0.5 129.216 0.5H131.462C131.801 0.5 132.105 0.64448 132.312 0.85115C132.519 1.05779 132.663 1.36168 132.663 1.70157V5.78608H140.88C141.007 5.78608 141.118 5.75582 141.228 5.6918C141.352 5.60618 141.429 5.51685 141.489 5.39968L143.358 1.47298L143.401 1.40747C143.57 1.15493 143.904 0.858643 144.404 0.858643H146.914C147.299 0.858643 147.743 1.05677 147.97 1.5093C148.16 1.89102 148.098 2.24592 148.029 2.45245L148.007 2.51659L145.845 7.04738C145.844 7.04832 145.844 7.04925 145.843 7.05019C145.692 7.37097 145.514 7.66495 145.31 7.93527C145.507 8.20166 145.681 8.4874 145.833 8.7913L145.838 8.80155L147.977 13.3131C148.139 13.6483 148.136 14.0348 147.97 14.3684C147.743 14.8209 147.299 15.019 146.914 15.019H144.404C144.273 15.019 144.023 14.9994 143.766 14.8393C143.53 14.6916 143.389 14.4888 143.311 14.3054L141.489 10.478C141.426 10.355 141.344 10.2627 141.21 10.1732C141.139 10.1264 141.048 10.0916 140.88 10.0916H132.663V13.8175C132.663 14.1574 132.519 14.4612 132.312 14.6679C132.105 14.8746 131.801 15.019 131.462 15.019H129.216C128.876 15.019 128.572 14.8746 128.366 14.6679C128.159 14.4612 128.015 14.1574 128.015 13.8175V1.70157C128.015 1.36168 128.159 1.05779 128.366 0.85115Z" fill="url(#paint5_linear_2036_4651)"/>
<defs>
<linearGradient id="paint0_linear_2036_4651" x1="95.2466" y1="1.59229" x2="95.2466" y2="13.9265" gradientUnits="userSpaceOnUse">
<stop stop-color="#33B3F4"/>
<stop offset="1" stop-color="#4F71B9"/>
</linearGradient>
<linearGradient id="paint1_linear_2036_4651" x1="95.2466" y1="1.59242" x2="95.2466" y2="13.9266" gradientUnits="userSpaceOnUse">
<stop stop-color="#33B3F4"/>
<stop offset="1" stop-color="#4F71B9"/>
</linearGradient>
<linearGradient id="paint2_linear_2036_4651" x1="116.57" y1="1.59229" x2="116.57" y2="13.9265" gradientUnits="userSpaceOnUse">
<stop stop-color="#33B3F4"/>
<stop offset="1" stop-color="#4F71B9"/>
</linearGradient>
<linearGradient id="paint3_linear_2036_4651" x1="116.57" y1="1.59242" x2="116.57" y2="13.9266" gradientUnits="userSpaceOnUse">
<stop stop-color="#33B3F4"/>
<stop offset="1" stop-color="#4F71B9"/>
</linearGradient>
<linearGradient id="paint4_linear_2036_4651" x1="138.056" y1="1.59229" x2="138.056" y2="13.9265" gradientUnits="userSpaceOnUse">
<stop stop-color="#33B3F4"/>
<stop offset="1" stop-color="#4F71B9"/>
</linearGradient>
<linearGradient id="paint5_linear_2036_4651" x1="138.056" y1="1.59242" x2="138.056" y2="13.9266" gradientUnits="userSpaceOnUse">
<stop stop-color="#33B3F4"/>
<stop offset="1" stop-color="#4F71B9"/>
</linearGradient>
</defs>
</svg>
