<svg width="24" height="24" viewBox="0 0 24 24" fill="none" xmlns="http://www.w3.org/2000/svg">
<path d="M12.0003 0C5.37207 0 2.09515e-09 5.37229 2.09515e-09 12.0004C-0.000122503 18.6271 5.37195 24 12.0003 24C18.6272 24 24 18.6271 24 12.0004C24 5.37229 18.6212 0 12.0003 0ZM15.7853 12.9144L11.008 17.6928C10.5018 18.1996 9.68521 18.1996 9.17927 17.6928C8.67296 17.1857 8.67296 16.3713 9.17927 15.8645L13.0433 12.0004L9.17927 8.1361C8.67296 7.62943 8.67296 6.81355 9.17927 6.30724C9.68521 5.8013 10.5018 5.8013 11.008 6.30724L15.7853 11.0855C16.2924 11.5916 16.2924 12.4135 15.7853 12.9144Z" fill="#3F9A55"/>
</svg>
