<svg width="12" height="12" viewBox="0 0 12 12" fill="none" xmlns="http://www.w3.org/2000/svg">
<path d="M5.43348 7.59208C5.41764 7.67921 5.39784 7.74653 5.37408 7.79406C5.35032 7.84158 5.29487 7.89307 5.20774 7.94851C5.0018 8.07525 4.78002 8.17822 4.54239 8.25743C4.30477 8.33663 4.07705 8.42376 3.85923 8.51881C3.6414 8.61386 3.45131 8.73861 3.28893 8.89307C3.12655 9.04752 3.02556 9.26733 2.98596 9.55247C2.97012 9.6396 2.96022 9.72475 2.95626 9.80792C2.9523 9.89109 2.94636 9.96832 2.93843 10.0396C2.93051 10.0554 2.92259 10.0693 2.91467 10.0812C2.90675 10.0931 2.89883 10.1069 2.89091 10.1228C2.582 10.099 2.26913 10.0713 1.9523 10.0396C1.63546 10.0079 1.34438 9.97228 1.07903 9.93267C0.813683 9.89307 0.589921 9.85347 0.407743 9.81386C0.225565 9.77426 0.110713 9.73465 0.0631884 9.69505C-0.00809867 9.6396 -0.061564 9.47327 -0.0972076 9.19604C-0.132851 8.91881 -0.11899 8.55842 -0.0556234 8.11485C-0.0160195 7.86931 0.0849706 7.68119 0.247347 7.55049C0.409723 7.4198 0.601802 7.31683 0.823584 7.24158C1.04537 7.16634 1.27309 7.09703 1.50675 7.03366C1.74042 6.9703 1.94834 6.88317 2.13051 6.77228C2.27309 6.67723 2.382 6.5901 2.45725 6.51089C2.53249 6.43168 2.58596 6.3505 2.61764 6.26733C2.64933 6.18416 2.66517 6.09901 2.66517 6.01188C2.66517 5.92475 2.66121 5.8297 2.65329 5.72673C2.63744 5.56832 2.58398 5.44356 2.49289 5.35248C2.4018 5.26139 2.30081 5.16832 2.18992 5.07327C2.12655 5.03366 2.07309 4.9703 2.02952 4.88317C1.98596 4.79604 1.94834 4.70891 1.91665 4.62178C1.88497 4.52673 1.85329 4.4198 1.8216 4.30099C1.77408 4.28515 1.72655 4.26139 1.67903 4.2297C1.63943 4.19802 1.59784 4.15049 1.55428 4.08713C1.51071 4.02376 1.46913 3.93663 1.42952 3.82574C1.38992 3.71485 1.37408 3.6099 1.382 3.51089C1.38992 3.41188 1.40972 3.32673 1.44141 3.25545C1.47309 3.16832 1.51665 3.09703 1.5721 3.04158C1.56418 2.78812 1.57606 2.53069 1.60774 2.26931C1.63943 2.05545 1.69091 1.82574 1.7622 1.5802C1.83348 1.33465 1.94042 1.11287 2.08299 0.914852C2.20972 0.724753 2.3523 0.570297 2.51071 0.451485C2.66913 0.332673 2.82952 0.239604 2.9919 0.172277C3.15428 0.10495 3.31863 0.0594059 3.48497 0.0356436C3.65131 0.0118812 3.81368 0 3.9721 0C4.36814 0 4.72457 0.0831683 5.0414 0.249505C5.35824 0.415842 5.59586 0.594059 5.75428 0.784158C5.85725 0.918812 5.92259 1.04356 5.95031 1.15842C5.97804 1.27327 6.01566 1.40594 6.06319 1.55644C5.91269 1.64356 5.7523 1.77228 5.582 1.94257C5.4117 2.11287 5.26319 2.28515 5.13645 2.45941C4.97804 2.68119 4.85923 2.92673 4.78002 3.19604C4.70081 3.46535 4.6414 3.71485 4.6018 3.94455C4.5622 4.22178 4.54239 4.49901 4.54239 4.77624C4.47903 4.84752 4.4315 4.92673 4.39982 5.01386C4.36814 5.09307 4.34834 5.18614 4.34041 5.29307C4.33249 5.4 4.34834 5.51683 4.38794 5.64356C4.42754 5.77822 4.47111 5.88119 4.51863 5.95248C4.56616 6.02376 4.60972 6.07921 4.64933 6.11881C4.69685 6.16634 4.74437 6.19802 4.7919 6.21386C4.82358 6.34059 4.85527 6.45941 4.88695 6.5703C4.91863 6.66535 4.95626 6.76238 4.99982 6.86139C5.04338 6.9604 5.09685 7.03366 5.16022 7.08119C5.21566 7.12871 5.25923 7.16832 5.29091 7.2C5.32259 7.23168 5.34833 7.26139 5.36814 7.28911C5.38794 7.31683 5.39982 7.35446 5.40378 7.40198C5.40774 7.4495 5.41764 7.51287 5.43348 7.59208V7.59208ZM11.7662 9.77822C11.7978 9.88911 11.8236 10.0238 11.8434 10.1822C11.8632 10.3406 11.8731 10.501 11.8731 10.6634C11.8731 10.8257 11.8612 10.9782 11.8374 11.1208C11.8137 11.2634 11.778 11.3703 11.7305 11.4416C11.6988 11.4891 11.6058 11.5366 11.4513 11.5842C11.2968 11.6317 11.1048 11.6752 10.8751 11.7149C10.6454 11.7545 10.3919 11.7921 10.1147 11.8277C9.83744 11.8634 9.55823 11.8931 9.27705 11.9168C8.99586 11.9406 8.72457 11.9604 8.46319 11.9762C8.2018 11.9921 7.9721 12 7.77408 12C7.57606 12 7.34833 11.9921 7.09091 11.9762C6.83348 11.9604 6.56616 11.9406 6.28893 11.9168C6.0117 11.8931 5.73843 11.8673 5.46913 11.8396C5.19982 11.8119 4.9523 11.7802 4.72655 11.7446C4.50081 11.7089 4.31071 11.6733 4.15626 11.6376C4.0018 11.602 3.90477 11.5683 3.86517 11.5366C3.8018 11.4812 3.75032 11.3149 3.71071 11.0376C3.67111 10.7604 3.68299 10.404 3.74636 9.96832C3.78596 9.71485 3.88695 9.52475 4.04933 9.39802C4.2117 9.27129 4.40378 9.16832 4.62556 9.08911C4.84735 9.0099 5.07507 8.94059 5.30873 8.88119C5.54239 8.82178 5.75032 8.73267 5.93249 8.61386C6.07507 8.51881 6.18398 8.43168 6.25923 8.35248C6.33447 8.27327 6.38992 8.19406 6.42556 8.11485C6.46121 8.03564 6.47903 7.95247 6.47903 7.86535C6.47903 7.77822 6.47507 7.67921 6.46715 7.56832C6.45131 7.4099 6.39586 7.28515 6.30081 7.19406C6.20576 7.10297 6.10279 7.01386 5.9919 6.92673C5.93645 6.87921 5.88695 6.81188 5.84338 6.72475C5.79982 6.63762 5.7622 6.55049 5.73051 6.46337C5.69883 6.36832 5.66715 6.26139 5.63546 6.14257C5.58794 6.12673 5.54041 6.10297 5.49289 6.07129C5.45329 6.0396 5.4117 5.99208 5.36814 5.92871C5.32457 5.86535 5.28299 5.77822 5.24338 5.66733C5.20378 5.55644 5.18794 5.45149 5.19586 5.35248C5.20378 5.25347 5.22358 5.17228 5.25527 5.10891C5.28695 5.0297 5.33051 4.95842 5.38596 4.89505C5.37804 4.64158 5.38992 4.38416 5.4216 4.12277C5.45329 3.90099 5.50279 3.66931 5.57012 3.42772C5.63744 3.18614 5.74239 2.96238 5.88497 2.75644C6.0117 2.56634 6.15428 2.41188 6.31269 2.29307C6.47111 2.17426 6.63348 2.08119 6.79982 2.01386C6.96616 1.94653 7.13249 1.90099 7.29883 1.87723C7.46517 1.85347 7.62358 1.84158 7.77408 1.84158C8.17804 1.84158 8.53843 1.92475 8.85526 2.09109C9.1721 2.25743 9.40576 2.43564 9.55625 2.62574C9.73051 2.8396 9.85922 3.07921 9.94239 3.34455C10.0256 3.6099 10.0869 3.85743 10.1266 4.08713C10.1662 4.35644 10.182 4.62574 10.1741 4.89505C10.2137 4.92673 10.2493 4.9703 10.281 5.02574C10.3048 5.07327 10.3266 5.13465 10.3464 5.2099C10.3662 5.28515 10.3681 5.37822 10.3523 5.48911C10.3365 5.63168 10.3048 5.74653 10.2572 5.83366C10.2097 5.92079 10.1622 5.98812 10.1147 6.03564C10.0592 6.09109 9.99586 6.12673 9.92457 6.14257C9.89289 6.26139 9.8612 6.36832 9.82952 6.46337C9.79784 6.55049 9.75823 6.63762 9.71071 6.72475C9.66318 6.81188 9.6117 6.87525 9.55625 6.91485C9.49289 6.9703 9.43546 7.01782 9.38398 7.05743C9.33249 7.09703 9.28695 7.13861 9.24734 7.18218C9.20774 7.22574 9.17408 7.27525 9.14635 7.33069C9.11863 7.38614 9.09685 7.45347 9.08101 7.53267C9.06517 7.63564 9.05922 7.74059 9.06318 7.84752C9.06715 7.95446 9.09289 8.05941 9.14041 8.16238C9.18794 8.26535 9.26517 8.36436 9.3721 8.45941C9.47903 8.55446 9.62754 8.63762 9.81764 8.70891C9.98398 8.7802 10.1681 8.84158 10.3701 8.89307C10.5721 8.94455 10.7662 9.00594 10.9523 9.07723C11.1384 9.14851 11.3048 9.2396 11.4513 9.3505C11.5978 9.46139 11.7028 9.60396 11.7662 9.77822V9.77822Z" fill="#3F9A55"/>
</svg>
