<svg width="480" height="48" viewBox="0 0 480 48" fill="none" xmlns="http://www.w3.org/2000/svg">
<path d="M11.5291 20.1232H54.6008C54.7019 20.1232 54.803 20.1738 54.8536 20.2243C54.9041 20.2749 54.9547 20.376 54.9547 20.4771V26.6446C54.9547 26.7458 54.9041 26.8469 54.8536 26.8974C54.803 26.948 54.7019 26.9985 54.6008 26.9985H11.5291V33.2672C11.5291 34.1771 11.883 34.986 12.5402 35.6938C13.1974 36.3509 14.0062 36.7048 14.9668 36.7048H60.3134C60.4145 36.7048 60.5156 36.7554 60.5662 36.8059C60.6167 36.8565 60.6673 36.9576 60.6673 37.0081V43.1757C60.6673 43.2768 60.6167 43.3779 60.5662 43.4285C60.5156 43.479 60.4145 43.5296 60.3134 43.5296H14.9668C11.7819 43.5296 9.10253 42.4174 6.87817 40.193C4.65381 37.9687 3.54163 35.2893 3.54163 32.1044V14.9668C3.54163 11.7819 4.65381 9.10253 6.87817 6.87817C9.10253 4.65381 11.7819 3.54163 14.9668 3.54163H60.3134C60.4145 3.54163 60.5156 3.59218 60.5662 3.64273C60.6167 3.69329 60.6673 3.79439 60.6673 3.8955V10.063C60.6673 10.1642 60.6167 10.2147 60.5662 10.2653C60.5156 10.3158 60.4145 10.3664 60.3134 10.3664H14.9668C14.0062 10.3664 13.1974 10.7202 12.5402 11.3774C11.883 12.0346 11.5291 12.8435 11.5291 13.804V20.1232Z" fill="white"/>
<path fill-rule="evenodd" clip-rule="evenodd" d="M10.6062 8.35918C10.1816 8.64931 9.77508 8.99005 9.38257 9.38257C7.82569 10.9394 7.08336 12.7166 7.08336 14.9668V32.1045C7.08336 34.3547 7.82569 36.1319 9.38257 37.6887C9.77508 38.0812 10.1816 38.422 10.6062 38.7121C10.4084 38.552 10.2182 38.3805 10.0359 38.1981L9.98952 38.1518L9.94491 38.1037C8.76857 36.8369 7.98748 35.1941 7.98748 33.2672V13.8041C7.98748 11.8712 8.73825 10.1708 10.0359 8.87315C10.2182 8.69084 10.4084 8.51933 10.6062 8.35918ZM4.37388 4.37388C7.26572 1.48203 10.8473 0 14.9668 0H60.3134C61.4153 0 62.4005 0.468409 63.0705 1.13844C63.7406 1.8085 64.209 2.79377 64.209 3.89556V10.0631C64.209 11.6614 63.233 12.6114 63.0838 12.7567C63.0782 12.7622 63.0737 12.7665 63.0705 12.7697C62.4005 13.4397 61.4152 13.9081 60.3134 13.9081H15.0708V16.5816H54.6009C55.7027 16.5816 56.688 17.05 57.358 17.72C58.028 18.3901 58.4964 19.3754 58.4964 20.4772V26.6447C58.4964 27.7465 58.028 28.7318 57.358 29.4018C56.688 30.0718 55.7027 30.5403 54.6009 30.5403H15.0708V33.1632H60.3134C61.4153 33.1632 62.4006 33.6316 63.0705 34.3016C63.4462 34.6773 63.6746 35.0655 63.8035 35.3232L63.8061 35.3285C63.884 35.4842 64.209 36.1335 64.209 37.0082V43.1757C64.209 44.2775 63.7406 45.2628 63.0705 45.9329C62.4005 46.6029 61.4152 47.0713 60.3134 47.0713H14.9668C10.8473 47.0713 7.26572 45.5893 4.37388 42.6974C1.48203 39.8056 0 36.224 0 32.1045V14.9668C0 10.8473 1.48203 7.26572 4.37388 4.37388Z" fill="white"/>
<path d="M129.825 43.2262C129.825 43.3274 129.775 43.3779 129.724 43.4285C129.673 43.479 129.572 43.5296 129.522 43.5296H84.1751C80.9902 43.5296 78.3109 42.4174 76.0865 40.193C73.8622 37.9687 72.75 35.2893 72.75 32.1044V3.8955C72.75 3.79439 72.8006 3.69329 72.8511 3.64273C72.9017 3.59218 73.0028 3.54163 73.0533 3.54163H80.3836C80.4847 3.54163 80.5858 3.59218 80.6364 3.64273C80.6869 3.69329 80.7375 3.79439 80.7375 3.8955V33.2672C80.7375 34.1771 81.0914 34.986 81.7485 35.6938C82.4057 36.3509 83.2146 36.7048 84.1751 36.7048H129.522C129.623 36.7048 129.673 36.7554 129.724 36.8059C129.775 36.8565 129.825 36.9576 129.825 37.0081V43.2262Z" fill="white"/>
<path fill-rule="evenodd" clip-rule="evenodd" d="M76.291 7.08336V32.1045C76.291 34.3547 77.0333 36.1319 78.5902 37.6887C78.9827 38.0812 79.3892 38.422 79.8138 38.7121C79.6161 38.552 79.4258 38.3804 79.2435 38.1981L79.1972 38.1518L79.1525 38.1037C77.9762 36.8369 77.1951 35.1941 77.1951 33.2672V7.08336H76.291ZM71.3729 0.402876C71.5286 0.324939 72.178 0 73.0526 0H80.3829C81.4847 0 82.47 0.468409 83.14 1.13844C83.8101 1.8085 84.2785 2.79377 84.2785 3.89556V33.1632H129.521C131.119 33.1632 132.069 34.1393 132.215 34.2884C132.22 34.294 132.224 34.2985 132.228 34.3016C132.603 34.6773 132.832 35.0655 132.961 35.3232L132.963 35.3285C133.041 35.4842 133.366 36.1335 133.366 37.0082V43.2263C133.366 44.8246 132.39 45.7747 132.241 45.9199C132.235 45.9254 132.231 45.9297 132.228 45.9329C131.852 46.3085 131.464 46.537 131.206 46.6658L131.201 46.6685C131.045 46.7464 130.396 47.0713 129.521 47.0713H84.1744C80.0549 47.0713 76.4734 45.5893 73.5815 42.6974C70.6897 39.8056 69.2076 36.224 69.2076 32.1045V3.89556C69.2076 2.79359 69.6762 1.80836 70.3461 1.13844C70.7217 0.762817 71.1099 0.534384 71.3676 0.405514C71.3693 0.404669 71.3711 0.403789 71.3729 0.402876Z" fill="white"/>
<path d="M149.793 20.1232H192.865C192.966 20.1232 193.067 20.1738 193.118 20.2243C193.168 20.2749 193.219 20.376 193.219 20.4771V26.6446C193.219 26.7458 193.168 26.8469 193.118 26.8974C193.067 26.948 192.966 26.9985 192.865 26.9985H149.793V33.2672C149.793 34.1771 150.147 34.986 150.804 35.6938C151.461 36.3509 152.27 36.7048 153.231 36.7048H198.577C198.679 36.7048 198.78 36.7554 198.83 36.8059C198.881 36.8565 198.931 36.9576 198.931 37.0081V43.1757C198.931 43.2768 198.881 43.3779 198.83 43.4285C198.78 43.479 198.679 43.5296 198.577 43.5296H153.231C150.046 43.5296 147.367 42.4174 145.142 40.193C142.918 37.9687 141.806 35.2893 141.806 32.1044V14.9668C141.806 11.7819 142.918 9.10253 145.142 6.87817C147.367 4.65381 150.046 3.54163 153.231 3.54163H198.577C198.679 3.54163 198.78 3.59218 198.83 3.64273C198.881 3.69329 198.931 3.79439 198.931 3.8955V10.063C198.931 10.1642 198.881 10.2147 198.83 10.2653C198.78 10.3158 198.679 10.3664 198.577 10.3664H153.231C152.27 10.3664 151.461 10.7202 150.804 11.3774C150.147 12.0346 149.793 12.8435 149.793 13.804V20.1232Z" fill="white"/>
<path fill-rule="evenodd" clip-rule="evenodd" d="M148.87 8.35922C148.446 8.64933 148.039 8.99007 147.647 9.38257C146.09 10.9394 145.347 12.7166 145.347 14.9668V32.1045C145.347 34.3547 146.09 36.1319 147.647 37.6887C148.039 38.0812 148.446 38.422 148.87 38.7121C148.672 38.5519 148.482 38.3804 148.3 38.1981L148.254 38.1518L148.209 38.1037C147.033 36.8369 146.252 35.1941 146.252 33.2672V13.8041C146.252 11.8712 147.002 10.1708 148.3 8.87315C148.482 8.69086 148.672 8.51936 148.87 8.35922ZM142.638 4.37388C145.53 1.48203 149.111 0 153.231 0H198.577C199.679 0 200.665 0.468409 201.335 1.13844C202.004 1.80836 202.473 2.79359 202.473 3.89556V10.0631C202.473 11.6615 201.497 12.6116 201.348 12.7567C201.342 12.7622 201.338 12.7665 201.335 12.7697C200.665 13.4397 199.679 13.9081 198.577 13.9081H153.335V16.5816H192.865C193.967 16.5816 194.952 17.05 195.622 17.72C196.292 18.39 196.76 19.3752 196.76 20.4772V26.6447C196.76 27.7467 196.292 28.7319 195.622 29.4018C194.952 30.0718 193.967 30.5403 192.865 30.5403H153.335V33.1632H198.577C199.679 33.1632 200.665 33.6316 201.335 34.3016C201.71 34.6772 201.939 35.0653 202.067 35.3231L202.07 35.3283C202.148 35.484 202.473 36.1334 202.473 37.0082V43.1757C202.473 44.2777 202.004 45.2629 201.335 45.9329C200.665 46.6029 199.679 47.0713 198.577 47.0713H153.231C149.111 47.0713 145.53 45.5893 142.638 42.6974C139.746 39.8056 138.264 36.224 138.264 32.1045V14.9668C138.264 10.8473 139.746 7.26572 142.638 4.37388Z" fill="white"/>
<path d="M210.963 14.9162C210.963 11.7819 212.075 9.10253 214.3 6.87817C216.524 4.65381 219.203 3.54163 222.388 3.54163H256.664C259.798 3.54163 262.528 4.65381 264.752 6.87817C266.977 9.10253 268.089 11.7819 268.089 14.9162V43.1757C268.089 43.2768 268.038 43.3779 267.988 43.4285C267.937 43.479 267.836 43.5296 267.735 43.5296H260.405C260.304 43.5296 260.253 43.479 260.202 43.4285C260.152 43.3779 260.101 43.2768 260.101 43.1757V30.3856H218.951V43.1757C218.951 43.2768 218.9 43.3779 218.85 43.4285C218.799 43.479 218.698 43.5296 218.647 43.5296H211.317C211.216 43.5296 211.115 43.479 211.064 43.4285C211.014 43.3779 210.963 43.2768 210.963 43.1757V14.9162ZM260.101 23.5609V13.804C260.101 12.8435 259.747 12.0346 259.09 11.3774C258.433 10.7202 257.624 10.3664 256.664 10.3664H222.388C221.428 10.3664 220.619 10.7202 219.962 11.3774C219.304 12.0346 218.951 12.8435 218.951 13.804V23.5103H260.101V23.5609Z" fill="white"/>
<path fill-rule="evenodd" clip-rule="evenodd" d="M218.028 8.35916C217.603 8.64929 217.197 8.99004 216.804 9.38257C215.241 10.9455 214.505 12.7251 214.505 14.9163V39.9879H215.409V13.8041C215.409 11.8712 216.16 10.1708 217.457 8.87315C217.64 8.69083 217.83 8.51932 218.028 8.35916ZM261.061 8.38917C261.246 8.54069 261.424 8.70218 261.595 8.87315C262.892 10.1708 263.643 11.8712 263.643 13.8041V23.5609H260.101V26.844H263.643V39.9879H264.547V14.9163C264.547 12.7251 263.811 10.9454 262.248 9.38257C261.869 9.00384 261.474 8.67297 261.061 8.38917ZM256.56 19.9687V13.9081H222.492V19.9687H256.56ZM211.795 4.37388C214.687 1.48203 218.269 0 222.388 0H256.664C260.724 0 264.359 1.47609 267.257 4.37388C270.142 7.25972 271.63 10.8388 271.63 14.9163V43.1757C271.63 44.2777 271.162 45.2629 270.492 45.9329C269.822 46.6029 268.837 47.0713 267.735 47.0713H260.405C258.806 47.0713 257.856 46.0953 257.711 45.9461C257.706 45.9405 257.701 45.936 257.698 45.9329C257.028 45.2629 256.56 44.2777 256.56 43.1757V33.9273H222.492V43.1757C222.492 44.2777 222.024 45.2629 221.354 45.9329C220.978 46.3085 220.59 46.5369 220.332 46.6658L220.327 46.6684C220.171 46.7464 219.522 47.0713 218.647 47.0713H211.317C210.215 47.0713 209.23 46.6029 208.56 45.9329C207.89 45.2629 207.422 44.2777 207.422 43.1757V14.9163C207.422 10.8388 208.91 7.25971 211.795 4.37388Z" fill="white"/>
<path d="M280.121 3.8955C280.121 3.79439 280.171 3.69329 280.222 3.64273C280.272 3.59218 280.373 3.54163 280.424 3.54163H336.892C336.993 3.54163 337.044 3.59218 337.095 3.64273C337.145 3.69329 337.196 3.79439 337.196 3.8955V10.063C337.196 10.1642 337.145 10.2147 337.095 10.2653C337.044 10.3158 336.943 10.3664 336.892 10.3664H312.677V43.1757C312.677 43.2768 312.627 43.3779 312.576 43.4285C312.525 43.479 312.424 43.5296 312.374 43.5296H305.044C304.942 43.5296 304.841 43.479 304.791 43.4285C304.74 43.3779 304.69 43.2768 304.69 43.1757V10.3664H280.474C280.373 10.3664 280.323 10.3158 280.272 10.2653C280.222 10.2147 280.171 10.1136 280.171 10.063V3.8955H280.121Z" fill="url(#paint0_linear_2036_4603)"/>
<path fill-rule="evenodd" clip-rule="evenodd" d="M308.231 7.08336V39.9879H309.136V7.08336H308.231ZM276.63 7.43724H276.579V3.89556C276.579 2.79359 277.048 1.80836 277.717 1.13844C278.093 0.76273 278.481 0.534287 278.739 0.40545C278.741 0.404605 278.743 0.403724 278.744 0.40281C278.9 0.324889 279.549 0 280.424 0H336.892C338.491 0 339.441 0.976259 339.586 1.12525C339.591 1.13085 339.596 1.13528 339.599 1.13844C340.269 1.80836 340.737 2.79359 340.737 3.89556V10.0631C340.737 11.6615 339.761 12.6116 339.612 12.7567C339.607 12.7622 339.602 12.7665 339.599 12.7697C339.223 13.1452 338.835 13.3736 338.578 13.5025L338.572 13.5052C338.417 13.5831 337.767 13.9081 336.892 13.9081H316.219V43.1757C316.219 44.2777 315.75 45.2629 315.08 45.9329C314.705 46.3084 314.317 46.5368 314.059 46.6657L314.054 46.6684C313.898 46.7463 313.249 47.0713 312.374 47.0713H305.044C303.942 47.0713 302.957 46.6029 302.287 45.9329C301.617 45.2629 301.148 44.2777 301.148 43.1757V13.9081H280.475C278.876 13.9081 277.926 12.9318 277.781 12.7829C277.775 12.7773 277.771 12.7728 277.768 12.7697C277.392 12.3941 277.164 12.0059 277.035 11.7482L277.032 11.7429C276.955 11.5872 276.63 10.9378 276.63 10.0631V7.43724Z" fill="url(#paint1_linear_2036_4603)"/>
<path d="M357.215 20.1232H400.287C400.388 20.1232 400.489 20.1738 400.54 20.2243C400.59 20.2749 400.641 20.376 400.641 20.4771V26.6446C400.641 26.7458 400.59 26.8469 400.54 26.8974C400.489 26.948 400.388 26.9985 400.287 26.9985H357.215V33.2672C357.215 34.1771 357.569 34.986 358.226 35.6938C358.883 36.3509 359.692 36.7048 360.653 36.7048H405.999C406.1 36.7048 406.202 36.7554 406.252 36.8059C406.303 36.8565 406.353 36.9576 406.353 37.0081V43.1757C406.353 43.2768 406.303 43.3779 406.252 43.4285C406.202 43.479 406.1 43.5296 405.999 43.5296H360.653C357.468 43.5296 354.788 42.4174 352.564 40.193C350.34 37.9687 349.228 35.2893 349.228 32.1044V14.9668C349.228 11.7819 350.34 9.10253 352.564 6.87817C354.788 4.65381 357.468 3.54163 360.653 3.54163H405.999C406.1 3.54163 406.202 3.59218 406.252 3.64273C406.303 3.69329 406.353 3.79439 406.353 3.8955V10.063C406.353 10.1642 406.303 10.2147 406.252 10.2653C406.202 10.3158 406.1 10.3664 405.999 10.3664H360.653C359.692 10.3664 358.883 10.7202 358.226 11.3774C357.569 12.0346 357.215 12.8435 357.215 13.804V20.1232Z" fill="url(#paint2_linear_2036_4603)"/>
<path fill-rule="evenodd" clip-rule="evenodd" d="M356.292 8.35928C355.867 8.64939 355.461 8.9901 355.068 9.38257C353.512 10.9395 352.769 12.7166 352.769 14.9668V32.1045C352.769 34.3547 353.512 36.1318 355.068 37.6887C355.461 38.0812 355.867 38.4219 356.292 38.712C356.094 38.5519 355.904 38.3804 355.722 38.1981L355.675 38.1518L355.631 38.1037C354.454 36.8369 353.673 35.1941 353.673 33.2672V13.8041C353.673 11.8712 354.424 10.1708 355.722 8.87315C355.904 8.69088 356.094 8.51941 356.292 8.35928ZM350.06 4.37388C352.952 1.48203 356.533 0 360.653 0H405.999C407.101 0 408.086 0.468409 408.756 1.13844C409.426 1.80836 409.895 2.79359 409.895 3.89556V10.0631C409.895 11.6615 408.919 12.6116 408.77 12.7567C408.764 12.7622 408.76 12.7665 408.756 12.7697C408.086 13.4397 407.101 13.9081 405.999 13.9081H360.757V16.5816H400.287C401.389 16.5816 402.374 17.05 403.044 17.72C403.714 18.39 404.182 19.3752 404.182 20.4772V26.6447C404.182 27.7467 403.714 28.7319 403.044 29.4018C402.374 30.0718 401.389 30.5403 400.287 30.5403H360.757V33.1632H405.999C407.101 33.1632 408.086 33.6316 408.756 34.3016C409.132 34.6772 409.36 35.0653 409.489 35.3231L409.492 35.3283C409.57 35.484 409.895 36.1334 409.895 37.0082V43.1757C409.895 44.2777 409.426 45.2629 408.756 45.9329C408.086 46.6029 407.101 47.0713 405.999 47.0713H360.653C356.533 47.0713 352.952 45.5893 350.06 42.6974C347.168 39.8056 345.686 36.224 345.686 32.1045V14.9668C345.686 10.8473 347.168 7.26571 350.06 4.37388Z" fill="url(#paint3_linear_2036_4603)"/>
<path d="M476.42 43.0746C476.471 43.1757 476.471 43.2768 476.42 43.3779C476.37 43.479 476.269 43.5296 476.167 43.5296H468.028C467.877 43.5296 467.776 43.479 467.725 43.3274L461.76 30.79C461.254 29.779 460.546 29.0207 459.636 28.414C458.726 27.8074 457.715 27.5546 456.603 27.5546H426.423V43.1757C426.423 43.2768 426.372 43.3779 426.322 43.4285C426.271 43.479 426.17 43.5296 426.069 43.5296H418.789C418.688 43.5296 418.587 43.479 418.536 43.4285C418.486 43.3779 418.435 43.2768 418.435 43.1757V3.8955C418.435 3.79439 418.486 3.69329 418.536 3.64273C418.587 3.59218 418.688 3.54163 418.789 3.54163H426.069C426.17 3.54163 426.271 3.59218 426.322 3.64273C426.372 3.69329 426.423 3.79439 426.423 3.8955V20.6793H456.603C457.715 20.6793 458.726 20.376 459.636 19.8199C460.546 19.2133 461.254 18.455 461.76 17.4439L467.725 4.90657C467.826 4.75491 467.927 4.70436 468.028 4.70436H476.167C476.269 4.70436 476.37 4.75491 476.42 4.85602C476.471 4.95713 476.471 5.05824 476.42 5.2099L469.494 19.7188C468.686 21.4376 467.573 22.8531 466.158 24.0664C467.523 25.2797 468.635 26.7458 469.494 28.4646L476.42 43.0746Z" fill="url(#paint4_linear_2036_4603)"/>
<path fill-rule="evenodd" clip-rule="evenodd" d="M421.977 7.08336V39.9879H422.881V7.08336H421.977ZM458.031 24.1129C459.246 24.2877 460.458 24.705 461.601 25.4672C462.977 26.3843 464.122 27.5952 464.927 29.2062L464.943 29.2372L470.058 39.9879H471.038L466.311 30.0174C465.645 28.6943 464.808 27.605 463.805 26.7135L460.772 24.0179L463.853 21.3774C464.912 20.4694 465.707 19.4493 466.29 18.2108L466.298 18.1931L471.046 8.24609H470.058L464.943 18.9969L464.927 19.0278C464.122 20.6388 462.977 21.8498 461.601 22.7668L461.543 22.8056L461.483 22.842C460.433 23.4836 459.275 23.9219 458.031 24.1129ZM416.032 1.13844C416.702 0.468409 417.687 0 418.789 0H426.069C427.171 0 428.156 0.468409 428.826 1.13844C429.496 1.80836 429.964 2.79359 429.964 3.89556V17.1377H456.603C457.014 17.1377 457.374 17.0396 457.732 16.832C458.132 16.5545 458.385 16.2648 458.579 15.885L464.637 3.15445L464.778 2.94206C465.324 2.1233 466.406 1.16273 468.028 1.16273H476.167C477.414 1.16273 478.854 1.80506 479.588 3.27219C480.207 4.50976 480.003 5.66035 479.78 6.32993L479.711 6.53786L472.699 21.2269C472.698 21.2299 472.696 21.2329 472.695 21.236C472.205 22.276 471.626 23.2291 470.965 24.1055C471.604 24.9691 472.17 25.8955 472.662 26.8807L472.679 26.914L479.613 41.5406C480.137 42.6274 480.129 43.8802 479.588 44.9618C478.854 46.429 477.414 47.0713 476.167 47.0713H468.028C467.602 47.0713 466.792 47.0078 465.962 46.4887C465.195 46.0098 464.739 45.3524 464.483 44.7576L458.579 32.3491C458.375 31.9504 458.107 31.6512 457.672 31.3609C457.444 31.2093 457.148 31.0963 456.603 31.0963H429.964V43.1757C429.964 44.2777 429.496 45.2629 428.826 45.9329C428.156 46.6029 427.171 47.0713 426.069 47.0713H418.789C417.687 47.0713 416.702 46.6029 416.032 45.9329C415.362 45.2629 414.894 44.2777 414.894 43.1757V3.89556C414.894 2.79359 415.362 1.80836 416.032 1.13844Z" fill="url(#paint5_linear_2036_4603)"/>
<defs>
<linearGradient id="paint0_linear_2036_4603" x1="308.658" y1="3.54163" x2="308.658" y2="43.5296" gradientUnits="userSpaceOnUse">
<stop stop-color="#33B3F4"/>
<stop offset="1" stop-color="#4F71B9"/>
</linearGradient>
<linearGradient id="paint1_linear_2036_4603" x1="308.658" y1="3.54168" x2="308.658" y2="43.5296" gradientUnits="userSpaceOnUse">
<stop stop-color="#33B3F4"/>
<stop offset="1" stop-color="#4F71B9"/>
</linearGradient>
<linearGradient id="paint2_linear_2036_4603" x1="377.79" y1="3.54163" x2="377.79" y2="43.5296" gradientUnits="userSpaceOnUse">
<stop stop-color="#33B3F4"/>
<stop offset="1" stop-color="#4F71B9"/>
</linearGradient>
<linearGradient id="paint3_linear_2036_4603" x1="377.79" y1="3.54168" x2="377.79" y2="43.5296" gradientUnits="userSpaceOnUse">
<stop stop-color="#33B3F4"/>
<stop offset="1" stop-color="#4F71B9"/>
</linearGradient>
<linearGradient id="paint4_linear_2036_4603" x1="447.447" y1="3.54163" x2="447.447" y2="43.5296" gradientUnits="userSpaceOnUse">
<stop stop-color="#33B3F4"/>
<stop offset="1" stop-color="#4F71B9"/>
</linearGradient>
<linearGradient id="paint5_linear_2036_4603" x1="447.447" y1="3.54168" x2="447.447" y2="43.5296" gradientUnits="userSpaceOnUse">
<stop stop-color="#33B3F4"/>
<stop offset="1" stop-color="#4F71B9"/>
</linearGradient>
</defs>
</svg>
