<svg width="96" height="138" viewBox="0 0 96 138" fill="none" xmlns="http://www.w3.org/2000/svg">
<path d="M11.87 88.8456C7.46996 84.4456 7.70329 80.0123 8.36996 78.3456C13.3699 74.5123 24.2699 67.3456 27.8699 69.3456C32.3699 71.8456 73.8699 93.3456 83.3699 98.8456C90.9699 103.246 94.8699 106.346 95.8699 107.346V137.346C94.2032 136.012 89.7699 132.746 85.3699 130.346C79.8699 127.346 52.8699 112.346 40.8699 106.346C28.8699 100.346 17.37 94.3456 11.87 88.8456Z" fill="url(#paint0_linear_2036_4667)"/>
<g filter="url(#filter0_d_2036_4667)">
<path d="M90 7C92.8 5.4 95.1667 3 96 2V29C95.3333 30 93.6 32.3 92 33.5C90 35 88.5 36 85 38C81.5 40 46.619 59.2078 41.5 62C36 65 24.8378 70.6641 22.5 72C19 74 12.5 77.5 10.5 79C9.06892 80.0733 8.16667 81.1667 8 81.5V54.5C8.66667 53.5 8.951 51.5368 11 50C13 48.5 16.7222 46.2148 19 45C41.5 33 87.2 8.6 90 7Z" fill="url(#paint1_linear_2036_4667)"/>
</g>
<path d="M22.0747 85.9207L26.4531 88.2385L27.0164 87.1745L23.7726 85.4573L24.7869 83.5412L27.4658 84.9593L28.029 83.8953L25.3502 82.4772L26.2349 80.8059L29.4787 82.523L30.0419 81.459L25.6635 79.1412L22.0747 85.9207Z" fill="#111111"/>
<path d="M27.6768 88.8862L31.8057 91.0719L32.369 90.0079L29.3747 88.4229L32.4002 82.7074L31.2656 82.1068L27.6768 88.8862Z" fill="#111111"/>
<path d="M32.6033 91.4941L36.9817 93.8119L37.5449 92.7479L34.3011 91.0307L35.3155 89.1146L37.9943 90.5327L38.5575 89.4687L35.8787 88.0506L36.7634 86.3793L40.0072 88.0964L40.5705 87.0324L36.1921 84.7146L32.6033 91.4941Z" fill="#111111"/>
<path d="M37.6404 94.1606L38.808 94.7786L40.047 93.554L42.7211 94.9696L42.4096 96.6852L43.5772 97.3033L45.0285 89.3923L43.3666 88.5126L37.6404 94.1606ZM40.942 92.6717L43.6051 90.0432L42.9429 93.7308L40.942 92.6717Z" fill="#111111"/>
<path d="M61.3704 106.722L62.5333 107.338L63.1489 106.175L61.986 105.559L61.3704 106.722Z" fill="#111111"/>
<path d="M66.8342 109.795C68.3925 110.62 69.9096 110.351 71.0314 109.245L70.0543 108.324C69.3246 109.064 68.4121 109.263 67.3999 108.727C66.0346 108.004 65.8656 106.661 66.6507 105.178C67.4404 103.697 68.6415 103.079 70.0068 103.802C71.019 104.338 71.3682 105.204 71.1659 106.224L72.4769 106.514C72.7607 104.965 72.1309 103.558 70.5725 102.733C68.5434 101.659 66.5736 102.443 65.4596 104.547C64.3456 106.652 64.8051 108.721 66.8342 109.795Z" fill="#111111"/>
<path d="M73.7858 113.475C75.8197 114.552 77.7894 113.768 78.9035 111.664C80.0175 109.56 79.558 107.49 77.5241 106.413C75.495 105.339 73.5252 106.123 72.4112 108.227C71.2972 110.332 71.7567 112.401 73.7858 113.475ZM73.6117 108.863C74.4015 107.382 75.6006 106.745 76.9584 107.482C78.3137 108.224 78.488 109.545 77.7029 111.028C76.9179 112.511 75.7094 113.143 74.3515 112.407C72.9962 111.665 72.822 110.343 73.6117 108.863Z" fill="#111111"/>
<path d="M78.0462 115.55L79.1102 116.113L81.4105 111.768L81.1864 117.212L81.6384 117.451L86.0196 114.207L83.7193 118.553L84.7786 119.114L88.3674 112.334L87.3457 111.793L82.4591 115.354L82.6566 109.311L81.635 108.77L78.0462 115.55Z" fill="#111111"/>
<path d="M45.6744 98.4133L46.809 99.0139L49.8346 93.2984L52.0285 94.4598L52.5917 93.3958L47.0693 90.4724L46.506 91.5364L48.6999 92.6978L45.6744 98.4133Z" fill="url(#paint2_linear_2036_4667)"/>
<path d="M49.7557 100.574L54.1341 102.891L54.6973 101.827L51.4536 100.11L52.4679 98.1942L55.1467 99.6123L55.71 98.5483L53.0311 97.1302L53.9159 95.4589L57.1596 97.176L57.7229 96.112L53.3445 93.7943L49.7557 100.574Z" fill="url(#paint3_linear_2036_4667)"/>
<path d="M55.2636 103.489L56.3983 104.09L58.073 100.926L59.256 105.603L60.6966 106.365L59.414 101.262L64.0877 99.4813L62.6941 98.7436L58.3222 100.455L59.987 97.3106L58.8524 96.7099L55.2636 103.489Z" fill="url(#paint4_linear_2036_4667)"/>
<path fill-rule="evenodd" clip-rule="evenodd" d="M30.4108 48.6191C28.502 49.6201 27.7661 51.9789 28.767 53.8877C29.768 55.7965 32.1268 56.5324 34.0356 55.5314C35.9444 54.5304 36.6803 52.1716 35.6793 50.2628C34.6784 48.3541 32.3195 47.6181 30.4108 48.6191ZM23.5828 56.6063C21.0804 51.8344 22.9202 45.9373 27.6921 43.4349C32.4641 40.9325 38.3611 42.7723 40.8636 47.5442C43.366 52.3162 41.5262 58.2132 36.7542 60.7156C31.9823 63.2181 26.0852 61.3783 23.5828 56.6063Z" fill="#369FEB"/>
<path d="M26.3478 60.1138L27.7579 59.3744L26.1702 56.3468L28.7001 55.0201L27.9606 53.61L25.4307 54.9367L24.5825 53.3192L27.7345 51.6663L26.9951 50.2562L22.433 52.6486L26.3478 60.1138Z" fill="#111111"/>
<path d="M41.1926 52.5275C42.9967 51.5814 43.6215 49.7731 42.6809 47.9793L40.2341 43.3135L38.8033 44.0639L41.2446 48.7193C41.7503 49.6836 41.409 50.7218 40.4966 51.2003C39.6049 51.6679 38.5469 51.3899 38.0304 50.4049L35.5891 45.7494L34.1636 46.5101L36.605 51.1656C37.5456 52.9593 39.3884 53.4736 41.1926 52.5275Z" fill="#111111"/>
<path d="M45.5962 50.0199L47.0271 49.2695L44.4172 44.2927L50.2724 47.5677L51.7033 46.8173L47.7884 39.352L46.3576 40.1024L48.9675 45.0792L43.1123 41.8042L41.6814 42.5546L45.5962 50.0199Z" fill="#111111"/>
<path d="M53.1498 46.0587L55.5657 44.7918C55.6797 44.732 56.1152 44.5037 56.4356 44.2828C58.1255 43.119 58.3048 41.0155 57.3098 39.1181C56.3148 37.2207 54.4826 36.1721 52.5643 36.9004C52.2004 37.0384 51.7649 37.2668 51.6508 37.3266L49.235 38.5934L53.1498 46.0587ZM53.8847 43.9812L51.3618 39.1703L52.3468 38.6537C52.5334 38.5559 52.8963 38.3656 53.1827 38.2815C54.2241 37.9733 55.2295 38.7813 55.8167 39.9011C56.3768 40.969 56.5226 42.2806 55.6512 42.9887C55.4192 43.1765 55.0563 43.3668 54.8697 43.4647L53.8847 43.9812Z" fill="#111111"/>
<path d="M65.7062 39.6724C67.5103 38.7263 68.1352 36.918 67.1946 35.1243L64.7478 30.4585L63.317 31.2088L65.7583 35.8642C66.264 36.8285 65.9227 37.8667 65.0103 38.3452C64.1186 38.8128 63.0606 38.5348 62.5441 37.5498L60.1027 32.8943L58.6773 33.6551L61.1187 38.3105C62.0593 40.1042 63.9021 40.6185 65.7062 39.6724Z" fill="#111111"/>
<path d="M72.6978 36.006C74.222 35.2067 75.2919 33.6673 74.4492 32.0602C73.6608 30.5568 72.169 30.8632 71.293 31.0582L69.812 31.3853C69.2698 31.511 68.6535 31.5962 68.398 31.1089C68.1207 30.5801 68.5688 29.9221 69.2433 29.5948C69.9281 29.2622 70.7721 29.3087 71.3186 29.9475L72.7068 28.889C71.6099 27.6796 70.1292 27.4778 68.5735 28.2672C67.0335 29.0615 66.165 30.4556 66.9534 31.959C67.6983 33.3795 68.998 33.1606 69.6656 33.022L71.9036 32.5755C72.5766 32.4473 72.8632 32.6408 73.0208 32.9414C73.3471 33.5635 72.7953 34.2759 72.1006 34.6402C71.2711 35.0752 70.3056 34.9734 69.6469 34.2216L68.2888 35.2114C69.3107 36.6056 71.0389 36.8759 72.6978 36.006Z" fill="#111111"/>
<defs>
<filter id="filter0_d_2036_4667" x="0" y="0" width="104" height="95.5" filterUnits="userSpaceOnUse" color-interpolation-filters="sRGB">
<feFlood flood-opacity="0" result="BackgroundImageFix"/>
<feColorMatrix in="SourceAlpha" type="matrix" values="0 0 0 0 0 0 0 0 0 0 0 0 0 0 0 0 0 0 127 0" result="hardAlpha"/>
<feOffset dy="6"/>
<feGaussianBlur stdDeviation="4"/>
<feComposite in2="hardAlpha" operator="out"/>
<feColorMatrix type="matrix" values="0 0 0 0 0 0 0 0 0 0 0 0 0 0 0 0 0 0 0.25 0"/>
<feBlend mode="normal" in2="BackgroundImageFix" result="effect1_dropShadow_2036_4667"/>
<feBlend mode="normal" in="SourceGraphic" in2="effect1_dropShadow_2036_4667" result="shape"/>
</filter>
<linearGradient id="paint0_linear_2036_4667" x1="8" y1="76" x2="96" y2="122.5" gradientUnits="userSpaceOnUse">
<stop stop-color="#7E7E7E"/>
<stop offset="0.138292" stop-color="#CDCDCD"/>
<stop offset="0.290375" stop-color="#F9F9F9"/>
<stop offset="0.836085" stop-color="white"/>
<stop offset="1" stop-color="#B5B5B5"/>
</linearGradient>
<linearGradient id="paint1_linear_2036_4667" x1="8" y1="68" x2="98.5" y2="18" gradientUnits="userSpaceOnUse">
<stop stop-color="#CECECE"/>
<stop offset="0.107358" stop-color="#F5F5F5"/>
<stop offset="0.28125" stop-color="#F8F8F8"/>
<stop offset="0.75" stop-color="#F9F9F9"/>
<stop offset="0.875" stop-color="#F4F4F4"/>
<stop offset="1" stop-color="#CACACA"/>
</linearGradient>
<linearGradient id="paint2_linear_2036_4667" x1="55.7444" y1="95.2053" x2="52.4214" y2="101.483" gradientUnits="userSpaceOnUse">
<stop stop-color="#369FEB"/>
<stop offset="1" stop-color="#4F71B9"/>
</linearGradient>
<linearGradient id="paint3_linear_2036_4667" x1="55.7444" y1="95.2053" x2="52.4214" y2="101.483" gradientUnits="userSpaceOnUse">
<stop stop-color="#369FEB"/>
<stop offset="1" stop-color="#4F71B9"/>
</linearGradient>
<linearGradient id="paint4_linear_2036_4667" x1="55.7444" y1="95.2053" x2="52.4214" y2="101.483" gradientUnits="userSpaceOnUse">
<stop stop-color="#369FEB"/>
<stop offset="1" stop-color="#4F71B9"/>
</linearGradient>
</defs>
</svg>
