<svg width="584" height="399" viewBox="0 0 584 399" fill="none" xmlns="http://www.w3.org/2000/svg">
<path d="M389.278 379.591C521.624 350.795 619.475 284.083 607.835 230.586C596.195 177.088 479.472 157.064 347.126 185.86C214.78 214.656 116.929 281.368 128.569 334.866C140.209 388.363 256.933 408.387 389.278 379.591Z" fill="#002D71" stroke="url(#paint0_linear_2036_4975)" stroke-miterlimit="10"/>
<path d="M382.597 377.302C509.925 348.969 603.861 284.275 592.408 232.804C580.954 181.333 468.449 162.575 341.121 190.908C213.793 219.241 119.857 283.935 131.311 335.406C142.764 386.878 255.269 405.635 382.597 377.302Z" fill="#002D71" stroke="url(#paint1_linear_2036_4975)" stroke-miterlimit="10"/>
<path d="M375.897 375.029C498.229 347.163 588.263 284.471 576.995 235.004C565.727 185.536 457.422 168.026 335.09 195.892C212.758 223.759 122.723 286.45 133.992 335.918C145.26 385.385 253.565 402.896 375.897 375.029Z" fill="#002D71" stroke="url(#paint2_linear_2036_4975)" stroke-miterlimit="10"/>
<path d="M369.201 372.761C486.512 345.367 572.631 284.702 561.553 237.263C550.475 189.823 446.395 173.573 329.084 200.968C211.773 228.362 125.654 289.027 136.732 336.466C147.81 383.906 251.89 400.156 369.201 372.761Z" fill="#002D71" stroke="url(#paint3_linear_2036_4975)" stroke-miterlimit="10"/>
<path d="M362.504 370.455C474.807 343.522 557.018 284.88 546.129 239.472C535.239 194.065 435.372 179.088 323.07 206.02C210.768 232.953 128.556 291.595 139.446 337.003C150.335 382.41 250.202 397.387 362.504 370.455Z" fill="#002D71" stroke="url(#paint4_linear_2036_4975)" stroke-miterlimit="10"/>
<path d="M355.821 368.168C463.118 341.7 541.425 285.081 530.725 241.704C520.025 198.328 424.37 184.621 317.073 211.089C209.776 237.557 131.469 294.176 142.169 337.553C152.869 380.929 248.524 394.636 355.821 368.168Z" fill="#002D71" stroke="url(#paint5_linear_2036_4975)" stroke-miterlimit="10"/>
<path d="M349.116 365.94C451.424 339.941 525.839 285.331 515.327 243.965C504.814 202.599 413.356 190.141 311.048 216.141C208.74 242.14 134.325 296.75 144.837 338.116C155.349 379.482 246.808 391.939 349.116 365.94Z" fill="#002D71" stroke="url(#paint6_linear_2036_4975)" stroke-miterlimit="10"/>
<path d="M342.383 363.585C439.666 338.058 510.163 285.483 499.843 246.156C489.524 206.829 402.295 195.642 305.012 221.17C207.729 246.697 137.232 299.272 147.552 338.599C157.871 377.927 245.1 389.113 342.383 363.585Z" fill="#002D71" stroke="url(#paint7_linear_2036_4975)" stroke-miterlimit="10"/>
<path d="M335.701 361.327C427.982 336.262 494.575 285.697 484.441 248.385C474.307 211.074 391.283 201.145 299.002 226.209C206.72 251.273 140.127 301.839 150.261 339.151C160.395 376.462 243.419 386.391 335.701 361.327Z" fill="#002D71" stroke="url(#paint8_linear_2036_4975)" stroke-miterlimit="10"/>
<path d="M328.987 359.078C416.262 334.478 478.947 285.924 468.999 250.63C459.05 215.336 380.236 206.666 292.961 231.267C205.686 255.867 143.001 304.421 152.949 339.715C162.897 375.009 241.712 383.678 328.987 359.078Z" fill="#002D71" stroke="url(#paint9_linear_2036_4975)" stroke-miterlimit="10"/>
<path d="M322.302 356.815C404.584 332.678 463.374 286.138 453.613 252.865C443.853 219.593 369.238 212.187 286.956 236.325C204.675 260.462 145.885 307.002 155.645 340.275C165.406 373.547 240.021 380.953 322.302 356.815Z" fill="#002D71" stroke="url(#paint10_linear_2036_4975)" stroke-miterlimit="10"/>
<path d="M315.611 354.543C392.887 330.872 447.773 286.353 438.202 255.106C428.631 223.86 358.227 217.719 280.95 241.39C203.673 265.061 148.787 309.581 158.359 340.827C167.93 372.074 238.334 378.214 315.611 354.543Z" fill="#002D71" stroke="url(#paint11_linear_2036_4975)" stroke-miterlimit="10"/>
<path d="M308.872 352.196C381.124 328.997 432.093 286.51 422.713 257.298C413.334 228.086 347.158 223.211 274.906 246.409C202.654 269.608 151.685 312.095 161.065 341.308C170.444 370.52 236.62 375.395 308.872 352.196Z" fill="#002D71" stroke="url(#paint12_linear_2036_4975)" stroke-miterlimit="10"/>
<path d="M302.169 349.942C369.41 327.214 416.467 286.741 407.274 259.544C398.081 232.347 336.119 228.724 268.878 251.453C201.637 274.181 154.58 314.654 163.773 341.851C172.966 369.048 234.928 372.671 302.169 349.942Z" fill="#002D71" stroke="url(#paint13_linear_2036_4975)" stroke-miterlimit="10"/>
<path d="M295.494 347.694C357.734 325.431 400.89 286.974 391.884 261.797C382.879 236.62 325.122 234.258 262.882 256.52C200.641 278.783 157.486 317.241 166.492 342.418C175.497 367.594 233.253 369.957 295.494 347.694Z" fill="#002D71" stroke="url(#paint14_linear_2036_4975)" stroke-miterlimit="10"/>
<path d="M341.01 339.132C479.939 278.356 572.648 183.562 548.081 127.404C523.514 71.2452 390.974 74.9881 252.045 135.764C113.117 196.539 20.4082 291.333 44.9752 347.492C69.5423 403.65 202.082 399.907 341.01 339.132Z" fill="#002D71" stroke="url(#paint15_linear_2036_4975)" stroke-miterlimit="10"/>
<path d="M333.154 338.088C466.676 278.929 555.529 187.216 531.615 133.241C507.7 79.2667 380.073 83.4698 246.552 142.629C113.031 201.789 24.177 293.502 48.0916 347.476C72.0062 401.451 199.633 397.248 333.154 338.088Z" fill="#002D71" stroke="url(#paint16_linear_2036_4975)" stroke-miterlimit="10"/>
<path d="M325.298 337.088C453.429 279.54 538.436 190.885 515.165 139.073C491.894 87.2604 369.158 91.9101 241.027 149.458C112.895 207.007 27.8888 295.661 51.1596 347.474C74.4303 399.286 197.166 394.636 325.298 337.088Z" fill="#002D71" stroke="url(#paint17_linear_2036_4975)" stroke-miterlimit="10"/>
<path d="M317.46 336.062C440.187 280.133 521.343 194.561 498.725 144.931C476.108 95.3013 358.284 100.407 235.556 156.336C112.829 212.265 31.6737 297.837 54.2907 347.466C76.9077 397.096 194.733 391.99 317.46 336.062Z" fill="#002D71" stroke="url(#paint18_linear_2036_4975)" stroke-miterlimit="10"/>
<path d="M309.539 334.999C426.872 280.696 504.191 198.216 482.234 150.774C460.278 103.333 347.361 108.895 230.028 163.198C112.695 217.501 35.3765 299.981 57.3329 347.423C79.2893 394.864 192.206 389.302 309.539 334.999Z" fill="#002D71" stroke="url(#paint19_linear_2036_4975)" stroke-miterlimit="10"/>
<path d="M301.699 333.957C413.641 281.265 487.12 201.863 465.818 156.609C444.516 111.354 336.501 117.384 224.558 170.077C112.616 222.769 39.1371 302.171 60.4389 347.425C81.7407 392.68 189.756 386.65 301.699 333.957Z" fill="#002D71" stroke="url(#paint20_linear_2036_4975)" stroke-miterlimit="10"/>
<path d="M293.838 332.933C400.397 281.846 470.035 205.504 449.379 162.42C428.723 119.335 325.595 125.823 219.036 176.91C112.478 227.997 42.8398 304.338 63.4958 347.423C84.1518 390.507 187.28 384.02 293.838 332.933Z" fill="#002D71" stroke="url(#paint21_linear_2036_4975)" stroke-miterlimit="10"/>
<path d="M285.997 331.91C387.159 282.444 452.957 209.191 432.96 168.296C412.963 127.4 314.744 134.348 213.581 183.815C112.419 233.281 46.621 306.534 66.6181 347.43C86.6152 388.325 184.834 381.377 285.997 331.91Z" fill="#002D71" stroke="url(#paint22_linear_2036_4975)" stroke-miterlimit="10"/>
<path d="M278.116 330.925C373.889 283.081 435.848 212.904 416.503 174.18C397.159 135.456 303.837 142.85 208.063 190.694C112.289 238.538 50.3311 308.715 69.6757 347.439C89.0202 386.162 182.342 378.769 278.116 330.925Z" fill="#002D71" stroke="url(#paint23_linear_2036_4975)" stroke-miterlimit="10"/>
<path d="M270.265 329.905C360.642 283.677 418.751 216.572 400.056 180.024C381.361 143.476 292.941 151.323 202.565 197.552C112.189 243.78 54.0793 310.885 72.7743 347.433C91.4693 383.981 179.889 376.134 270.265 329.905Z" fill="#002D71" stroke="url(#paint24_linear_2036_4975)" stroke-miterlimit="10"/>
<path d="M262.399 328.88C347.392 284.262 401.666 220.231 383.624 185.862C365.581 151.493 282.055 159.801 197.062 204.419C112.069 249.037 57.7947 313.068 75.837 347.437C93.8794 381.806 177.406 373.498 262.399 328.88Z" fill="#002D71" stroke="url(#paint25_linear_2036_4975)" stroke-miterlimit="10"/>
<path d="M254.536 327.85C334.136 284.847 384.569 223.895 367.181 191.709C349.793 159.523 271.169 168.292 191.569 211.295C111.968 254.298 61.5355 315.251 78.9234 347.437C96.3114 379.622 174.936 370.853 254.536 327.85Z" fill="#002D71" stroke="url(#paint26_linear_2036_4975)" stroke-miterlimit="10"/>
<path d="M246.669 326.799C320.862 285.416 367.444 227.552 350.713 197.555C333.981 167.558 260.273 176.788 186.08 218.17C111.887 259.553 65.305 317.417 82.0364 347.414C98.7677 377.411 172.476 368.181 246.669 326.799Z" fill="#002D71" stroke="url(#paint27_linear_2036_4975)" stroke-miterlimit="10"/>
<path d="M238.832 325.814C307.634 286.049 350.37 231.255 334.286 203.426C318.202 175.598 249.39 185.275 180.588 225.039C111.787 264.804 69.0513 319.598 85.1349 347.426C101.219 375.255 170.031 365.578 238.832 325.814Z" fill="#002D71" stroke="url(#paint28_linear_2036_4975)" stroke-miterlimit="10"/>
<path d="M231.005 324.786C294.417 286.631 333.31 234.907 317.876 209.256C302.442 183.606 238.525 193.743 175.114 231.897C111.702 270.052 72.809 321.777 88.243 347.427C103.677 373.078 167.594 362.941 231.005 324.786Z" fill="#002D71" stroke="url(#paint29_linear_2036_4975)" stroke-miterlimit="10"/>
<path d="M275.42 306.56C372.888 245.653 433.301 165.58 410.356 127.714C387.411 89.8472 289.798 108.526 192.33 169.433C94.8617 230.341 34.4488 310.413 57.3935 348.28C80.3382 386.147 177.952 367.468 275.42 306.56Z" fill="#002D71" stroke="url(#paint30_linear_2036_4975)" stroke-miterlimit="10"/>
<path d="M269.591 306.736C363.191 247.649 421.015 170.271 398.743 133.907C376.471 97.5426 282.538 115.963 188.938 175.05C95.3375 234.137 37.5144 311.515 59.7862 347.879C82.0581 384.243 175.991 365.823 269.591 306.736Z" fill="#002D71" stroke="url(#paint31_linear_2036_4975)" stroke-miterlimit="10"/>
<path d="M263.725 306.912C353.466 249.645 408.7 174.95 387.095 140.076C365.49 105.202 275.226 123.355 185.486 180.622C95.7454 237.889 40.5108 312.584 62.1161 347.458C83.7213 382.332 173.985 364.179 263.725 306.912Z" fill="#002D71" stroke="url(#paint32_linear_2036_4975)" stroke-miterlimit="10"/>
<path d="M257.918 307.068C343.788 251.615 396.427 179.61 375.493 146.24C354.558 112.87 267.976 130.772 182.106 186.225C96.237 241.677 43.5972 313.682 64.5321 347.052C85.467 380.422 172.049 362.52 257.918 307.068Z" fill="#002D71" stroke="url(#paint33_linear_2036_4975)" stroke-miterlimit="10"/>
<path d="M252.05 307.222C334.061 253.591 384.123 184.283 363.866 152.419C343.609 120.555 260.703 138.201 178.691 191.832C96.6797 245.464 46.6178 314.772 66.8751 346.636C87.1324 378.5 170.038 360.854 252.05 307.222Z" fill="#002D71" stroke="url(#paint34_linear_2036_4975)" stroke-miterlimit="10"/>
<path d="M246.193 307.345C324.34 255.527 371.816 188.912 352.233 158.557C332.651 128.201 253.425 145.6 175.279 197.418C97.1317 249.236 49.6559 315.85 69.2385 346.206C88.8211 376.561 168.046 359.163 246.193 307.345Z" fill="#002D71" stroke="url(#paint35_linear_2036_4975)" stroke-miterlimit="10"/>
<path d="M240.379 307.559C314.683 257.551 359.586 193.612 340.671 164.747C321.755 135.882 246.186 153.021 171.881 203.029C97.5765 253.036 52.6743 316.975 71.5893 345.84C90.5044 374.706 166.074 357.566 240.379 307.559Z" fill="#002D71" stroke="url(#paint36_linear_2036_4975)" stroke-miterlimit="10"/>
<path d="M234.535 307.688C304.974 259.498 347.29 198.256 329.052 170.901C310.813 143.545 238.926 160.434 168.488 208.624C98.0493 256.814 55.7327 318.056 73.9712 345.412C92.2098 372.768 164.097 355.878 234.535 307.688Z" fill="#002D71" stroke="url(#paint37_linear_2036_4975)" stroke-miterlimit="10"/>
<path d="M228.721 307.862C295.301 261.48 335.031 202.918 317.459 177.059C299.888 151.2 231.669 167.837 165.089 214.219C98.5082 260.6 58.7787 319.162 76.3503 345.021C93.9219 370.88 162.141 354.243 228.721 307.862Z" fill="#002D71" stroke="url(#paint38_linear_2036_4975)" stroke-miterlimit="10"/>
<path d="M222.869 308.025C285.589 263.463 322.733 207.59 305.833 183.229C288.933 158.868 224.388 175.244 161.668 219.806C98.9477 264.369 61.8036 320.241 78.7039 344.602C95.6042 368.963 160.149 352.587 222.869 308.025Z" fill="#002D71" stroke="url(#paint39_linear_2036_4975)" stroke-miterlimit="10"/>
<path d="M217.011 308.173C275.878 265.421 310.444 212.234 294.217 189.375C277.989 166.516 217.113 182.642 158.245 225.393C99.3778 268.144 64.8115 321.332 81.0392 344.191C97.2669 367.05 158.143 350.924 217.011 308.173Z" fill="#002D71" stroke="url(#paint40_linear_2036_4975)" stroke-miterlimit="10"/>
<path d="M211.192 308.338C266.202 267.397 298.186 216.897 282.631 195.542C267.076 174.187 209.872 190.065 154.863 231.005C99.8536 271.946 67.8695 322.447 83.4245 343.802C98.9794 365.157 156.183 349.279 211.192 308.338Z" fill="#002D71" stroke="url(#paint41_linear_2036_4975)" stroke-miterlimit="10"/>
<path d="M205.331 308.483C256.474 269.364 285.874 221.562 270.996 201.715C256.119 181.867 202.599 197.49 151.455 236.609C100.312 275.727 70.9123 323.529 85.7895 343.377C100.667 363.224 154.187 347.602 205.331 308.483Z" fill="#002D71" stroke="url(#paint42_linear_2036_4975)" stroke-miterlimit="10"/>
<path d="M199.51 308.666C246.792 271.363 273.603 226.246 259.395 207.896C245.186 189.545 195.338 204.91 148.055 242.213C100.773 279.516 73.9614 324.633 88.1702 342.983C102.379 361.334 152.227 345.97 199.51 308.666Z" fill="#002D71" stroke="url(#paint43_linear_2036_4975)" stroke-miterlimit="10"/>
<path d="M193.656 308.815C237.082 273.325 261.312 230.896 247.776 214.047C234.24 197.199 188.064 212.311 144.639 247.801C101.213 283.291 76.9833 325.72 90.5191 342.569C104.055 359.417 150.231 344.305 193.656 308.815Z" fill="#002D71" stroke="url(#paint44_linear_2036_4975)" stroke-miterlimit="10"/>
<path opacity="0.79" d="M54.5129 212.391C54.5129 216.953 50.8147 220.652 46.2527 220.652C41.6907 220.652 37.9924 216.953 37.9924 212.391C37.9924 207.829 41.6907 204.131 46.2527 204.131C50.8147 204.131 54.5129 207.829 54.5129 212.391Z" fill="#002D71" stroke="url(#paint45_linear_2036_4975)"/>
<path opacity="0.79" d="M490.813 327.701C490.813 335.548 484.452 341.91 476.604 341.91C468.757 341.91 462.395 335.548 462.395 327.701C462.395 319.853 468.757 313.492 476.604 313.492C484.452 313.492 490.813 319.853 490.813 327.701Z" fill="#002D71" stroke="url(#paint46_linear_2036_4975)"/>
<path opacity="0.79" d="M547.897 217.404C547.897 221.178 544.838 224.238 541.063 224.238C537.289 224.238 534.229 221.178 534.229 217.404C534.229 213.63 537.289 210.57 541.063 210.57C544.838 210.57 547.897 213.63 547.897 217.404Z" fill="#002D71" stroke="url(#paint47_linear_2036_4975)"/>
<path opacity="0.79" d="M161.388 79.5196C161.388 82.4389 159.021 84.8054 156.102 84.8054C153.183 84.8054 150.816 82.4389 150.816 79.5196C150.816 76.6003 153.183 74.2338 156.102 74.2338C159.021 74.2338 161.388 76.6003 161.388 79.5196Z" fill="#002D71" stroke="url(#paint48_linear_2036_4975)"/>
<path opacity="0.79" d="M223.484 64.4045C223.484 66.2661 221.975 67.7753 220.113 67.7753C218.252 67.7753 216.743 66.2661 216.743 64.4045C216.743 62.5429 218.252 61.0337 220.113 61.0337C221.975 61.0337 223.484 62.5429 223.484 64.4045Z" fill="#002D71" stroke="url(#paint49_linear_2036_4975)"/>
<path opacity="0.79" d="M322.413 290.826C322.413 294.601 319.353 297.661 315.579 297.661C311.805 297.661 308.745 294.601 308.745 290.826C308.745 287.052 311.805 283.992 315.579 283.992C319.353 283.992 322.413 287.052 322.413 290.826Z" fill="#002D71" stroke="url(#paint50_linear_2036_4975)"/>
<path opacity="0.79" d="M407.815 4.3868C407.815 6.13593 406.397 7.55387 404.648 7.55387C402.899 7.55387 401.481 6.13593 401.481 4.3868C401.481 2.63767 402.899 1.21973 404.648 1.21973C406.397 1.21973 407.815 2.63767 407.815 4.3868Z" fill="#002D71" stroke="url(#paint51_linear_2036_4975)"/>
<defs>
<linearGradient id="paint0_linear_2036_4975" x1="191.203" y1="218.568" x2="545.187" y2="346.857" gradientUnits="userSpaceOnUse">
<stop stop-color="#904AB1" stop-opacity="0"/>
<stop offset="1" stop-color="#33B3F4"/>
</linearGradient>
<linearGradient id="paint1_linear_2036_4975" x1="191.104" y1="223.116" x2="532.605" y2="345.059" gradientUnits="userSpaceOnUse">
<stop stop-color="#904AB1" stop-opacity="0"/>
<stop offset="1" stop-color="#33B3F4"/>
</linearGradient>
<linearGradient id="paint2_linear_2036_4975" x1="190.954" y1="227.594" x2="520.057" y2="343.197" gradientUnits="userSpaceOnUse">
<stop stop-color="#904AB1" stop-opacity="0"/>
<stop offset="1" stop-color="#33B3F4"/>
</linearGradient>
<linearGradient id="paint3_linear_2036_4975" x1="190.857" y1="232.158" x2="507.455" y2="341.43" gradientUnits="userSpaceOnUse">
<stop stop-color="#904AB1" stop-opacity="0"/>
<stop offset="1" stop-color="#33B3F4"/>
</linearGradient>
<linearGradient id="paint4_linear_2036_4975" x1="190.739" y1="236.712" x2="494.847" y2="339.669" gradientUnits="userSpaceOnUse">
<stop stop-color="#904AB1" stop-opacity="0"/>
<stop offset="1" stop-color="#33B3F4"/>
</linearGradient>
<linearGradient id="paint5_linear_2036_4975" x1="190.634" y1="241.278" x2="482.256" y2="337.932" gradientUnits="userSpaceOnUse">
<stop stop-color="#904AB1" stop-opacity="0"/>
<stop offset="1" stop-color="#33B3F4"/>
</linearGradient>
<linearGradient id="paint6_linear_2036_4975" x1="190.481" y1="245.823" x2="469.692" y2="336.174" gradientUnits="userSpaceOnUse">
<stop stop-color="#904AB1" stop-opacity="0"/>
<stop offset="1" stop-color="#33B3F4"/>
</linearGradient>
<linearGradient id="paint7_linear_2036_4975" x1="190.36" y1="250.341" x2="457.029" y2="334.377" gradientUnits="userSpaceOnUse">
<stop stop-color="#904AB1" stop-opacity="0"/>
<stop offset="1" stop-color="#33B3F4"/>
</linearGradient>
<linearGradient id="paint8_linear_2036_4975" x1="190.237" y1="254.879" x2="444.472" y2="332.582" gradientUnits="userSpaceOnUse">
<stop stop-color="#904AB1" stop-opacity="0"/>
<stop offset="1" stop-color="#33B3F4"/>
</linearGradient>
<linearGradient id="paint9_linear_2036_4975" x1="190.089" y1="259.435" x2="431.877" y2="330.797" gradientUnits="userSpaceOnUse">
<stop stop-color="#904AB1" stop-opacity="0"/>
<stop offset="1" stop-color="#33B3F4"/>
</linearGradient>
<linearGradient id="paint10_linear_2036_4975" x1="189.961" y1="263.993" x2="419.309" y2="329.055" gradientUnits="userSpaceOnUse">
<stop stop-color="#904AB1" stop-opacity="0"/>
<stop offset="1" stop-color="#33B3F4"/>
</linearGradient>
<linearGradient id="paint11_linear_2036_4975" x1="189.846" y1="268.554" x2="406.72" y2="327.307" gradientUnits="userSpaceOnUse">
<stop stop-color="#904AB1" stop-opacity="0"/>
<stop offset="1" stop-color="#33B3F4"/>
</linearGradient>
<linearGradient id="paint12_linear_2036_4975" x1="189.716" y1="273.061" x2="394.062" y2="325.492" gradientUnits="userSpaceOnUse">
<stop stop-color="#904AB1" stop-opacity="0"/>
<stop offset="1" stop-color="#33B3F4"/>
</linearGradient>
<linearGradient id="paint13_linear_2036_4975" x1="189.587" y1="277.596" x2="381.477" y2="323.681" gradientUnits="userSpaceOnUse">
<stop stop-color="#904AB1" stop-opacity="0"/>
<stop offset="1" stop-color="#33B3F4"/>
</linearGradient>
<linearGradient id="paint14_linear_2036_4975" x1="189.477" y1="282.159" x2="368.916" y2="321.929" gradientUnits="userSpaceOnUse">
<stop stop-color="#904AB1" stop-opacity="0"/>
<stop offset="1" stop-color="#33B3F4"/>
</linearGradient>
<linearGradient id="paint15_linear_2036_4975" x1="88.0982" y1="206.029" x2="504.936" y2="268.84" gradientUnits="userSpaceOnUse">
<stop stop-color="#904AB1" stop-opacity="0"/>
<stop offset="1" stop-color="#33B3F4"/>
</linearGradient>
<linearGradient id="paint16_linear_2036_4975" x1="88.9795" y1="211.041" x2="490.708" y2="269.639" gradientUnits="userSpaceOnUse">
<stop stop-color="#904AB1" stop-opacity="0"/>
<stop offset="1" stop-color="#33B3F4"/>
</linearGradient>
<linearGradient id="paint17_linear_2036_4975" x1="89.8079" y1="216.022" x2="476.514" y2="270.376" gradientUnits="userSpaceOnUse">
<stop stop-color="#904AB1" stop-opacity="0"/>
<stop offset="1" stop-color="#33B3F4"/>
</linearGradient>
<linearGradient id="paint18_linear_2036_4975" x1="90.7083" y1="221.042" x2="462.307" y2="271.195" gradientUnits="userSpaceOnUse">
<stop stop-color="#904AB1" stop-opacity="0"/>
<stop offset="1" stop-color="#33B3F4"/>
</linearGradient>
<linearGradient id="paint19_linear_2036_4975" x1="91.539" y1="226.04" x2="448.02" y2="272.052" gradientUnits="userSpaceOnUse">
<stop stop-color="#904AB1" stop-opacity="0"/>
<stop offset="1" stop-color="#33B3F4"/>
</linearGradient>
<linearGradient id="paint20_linear_2036_4975" x1="92.4244" y1="231.072" x2="433.818" y2="272.911" gradientUnits="userSpaceOnUse">
<stop stop-color="#904AB1" stop-opacity="0"/>
<stop offset="1" stop-color="#33B3F4"/>
</linearGradient>
<linearGradient id="paint21_linear_2036_4975" x1="93.249" y1="236.064" x2="419.617" y2="273.685" gradientUnits="userSpaceOnUse">
<stop stop-color="#904AB1" stop-opacity="0"/>
<stop offset="1" stop-color="#33B3F4"/>
</linearGradient>
<linearGradient id="paint22_linear_2036_4975" x1="94.1553" y1="241.11" x2="405.408" y2="274.576" gradientUnits="userSpaceOnUse">
<stop stop-color="#904AB1" stop-opacity="0"/>
<stop offset="1" stop-color="#33B3F4"/>
</linearGradient>
<linearGradient id="paint23_linear_2036_4975" x1="94.9898" y1="246.128" x2="391.18" y2="275.407" gradientUnits="userSpaceOnUse">
<stop stop-color="#904AB1" stop-opacity="0"/>
<stop offset="1" stop-color="#33B3F4"/>
</linearGradient>
<linearGradient id="paint24_linear_2036_4975" x1="95.8545" y1="251.133" x2="376.971" y2="276.197" gradientUnits="userSpaceOnUse">
<stop stop-color="#904AB1" stop-opacity="0"/>
<stop offset="1" stop-color="#33B3F4"/>
</linearGradient>
<linearGradient id="paint25_linear_2036_4975" x1="96.6977" y1="256.153" x2="362.755" y2="277.042" gradientUnits="userSpaceOnUse">
<stop stop-color="#904AB1" stop-opacity="0"/>
<stop offset="1" stop-color="#33B3F4"/>
</linearGradient>
<linearGradient id="paint26_linear_2036_4975" x1="97.5619" y1="261.177" x2="348.533" y2="277.888" gradientUnits="userSpaceOnUse">
<stop stop-color="#904AB1" stop-opacity="0"/>
<stop offset="1" stop-color="#33B3F4"/>
</linearGradient>
<linearGradient id="paint27_linear_2036_4975" x1="98.4476" y1="266.194" x2="334.291" y2="278.718" gradientUnits="userSpaceOnUse">
<stop stop-color="#904AB1" stop-opacity="0"/>
<stop offset="1" stop-color="#33B3F4"/>
</linearGradient>
<linearGradient id="paint28_linear_2036_4975" x1="99.3124" y1="271.207" x2="320.101" y2="279.513" gradientUnits="userSpaceOnUse">
<stop stop-color="#904AB1" stop-opacity="0"/>
<stop offset="1" stop-color="#33B3F4"/>
</linearGradient>
<linearGradient id="paint29_linear_2036_4975" x1="100.191" y1="276.219" x2="305.918" y2="280.323" gradientUnits="userSpaceOnUse">
<stop stop-color="#904AB1" stop-opacity="0"/>
<stop offset="1" stop-color="#33B3F4"/>
</linearGradient>
<linearGradient id="paint30_linear_2036_4975" x1="77.1855" y1="240.252" x2="390.007" y2="251.17" gradientUnits="userSpaceOnUse">
<stop stop-color="#904AB1" stop-opacity="0"/>
<stop offset="1" stop-color="#33B3F4"/>
</linearGradient>
<linearGradient id="paint31_linear_2036_4975" x1="78.3575" y1="243.76" x2="379.706" y2="252.854" gradientUnits="userSpaceOnUse">
<stop stop-color="#904AB1" stop-opacity="0"/>
<stop offset="1" stop-color="#33B3F4"/>
</linearGradient>
<linearGradient id="paint32_linear_2036_4975" x1="79.4601" y1="247.223" x2="369.38" y2="254.467" gradientUnits="userSpaceOnUse">
<stop stop-color="#904AB1" stop-opacity="0"/>
<stop offset="1" stop-color="#33B3F4"/>
</linearGradient>
<linearGradient id="paint33_linear_2036_4975" x1="80.6485" y1="250.725" x2="359.097" y2="256.123" gradientUnits="userSpaceOnUse">
<stop stop-color="#904AB1" stop-opacity="0"/>
<stop offset="1" stop-color="#33B3F4"/>
</linearGradient>
<linearGradient id="paint34_linear_2036_4975" x1="81.7858" y1="254.223" x2="348.763" y2="257.838" gradientUnits="userSpaceOnUse">
<stop stop-color="#904AB1" stop-opacity="0"/>
<stop offset="1" stop-color="#33B3F4"/>
</linearGradient>
<linearGradient id="paint35_linear_2036_4975" x1="82.9336" y1="257.708" x2="338.435" y2="259.511" gradientUnits="userSpaceOnUse">
<stop stop-color="#904AB1" stop-opacity="0"/>
<stop offset="1" stop-color="#33B3F4"/>
</linearGradient>
<linearGradient id="paint36_linear_2036_4975" x1="84.07" y1="261.222" x2="328.176" y2="261.204" gradientUnits="userSpaceOnUse">
<stop stop-color="#904AB1" stop-opacity="0"/>
<stop offset="1" stop-color="#33B3F4"/>
</linearGradient>
<linearGradient id="paint37_linear_2036_4975" x1="85.2389" y1="264.713" x2="317.859" y2="262.89" gradientUnits="userSpaceOnUse">
<stop stop-color="#904AB1" stop-opacity="0"/>
<stop offset="1" stop-color="#33B3F4"/>
</linearGradient>
<linearGradient id="paint38_linear_2036_4975" x1="86.3923" y1="268.212" x2="307.581" y2="264.538" gradientUnits="userSpaceOnUse">
<stop stop-color="#904AB1" stop-opacity="0"/>
<stop offset="1" stop-color="#33B3F4"/>
</linearGradient>
<linearGradient id="paint39_linear_2036_4975" x1="87.5268" y1="271.692" x2="297.262" y2="266.189" gradientUnits="userSpaceOnUse">
<stop stop-color="#904AB1" stop-opacity="0"/>
<stop offset="1" stop-color="#33B3F4"/>
</linearGradient>
<linearGradient id="paint40_linear_2036_4975" x1="88.6504" y1="275.181" x2="286.944" y2="267.866" gradientUnits="userSpaceOnUse">
<stop stop-color="#904AB1" stop-opacity="0"/>
<stop offset="1" stop-color="#33B3F4"/>
</linearGradient>
<linearGradient id="paint41_linear_2036_4975" x1="89.8208" y1="278.697" x2="276.659" y2="269.56" gradientUnits="userSpaceOnUse">
<stop stop-color="#904AB1" stop-opacity="0"/>
<stop offset="1" stop-color="#33B3F4"/>
</linearGradient>
<linearGradient id="paint42_linear_2036_4975" x1="90.9751" y1="282.19" x2="266.321" y2="271.246" gradientUnits="userSpaceOnUse">
<stop stop-color="#904AB1" stop-opacity="0"/>
<stop offset="1" stop-color="#33B3F4"/>
</linearGradient>
<linearGradient id="paint43_linear_2036_4975" x1="92.1311" y1="285.692" x2="256.026" y2="272.893" gradientUnits="userSpaceOnUse">
<stop stop-color="#904AB1" stop-opacity="0"/>
<stop offset="1" stop-color="#33B3F4"/>
</linearGradient>
<linearGradient id="paint44_linear_2036_4975" x1="93.266" y1="289.18" x2="245.703" y2="274.554" gradientUnits="userSpaceOnUse">
<stop stop-color="#904AB1" stop-opacity="0"/>
<stop offset="1" stop-color="#33B3F4"/>
</linearGradient>
<linearGradient id="paint45_linear_2036_4975" x1="46.2527" y1="203.631" x2="46.2527" y2="221.152" gradientUnits="userSpaceOnUse">
<stop stop-color="#70A0FF"/>
<stop offset="1" stop-color="#353249" stop-opacity="0"/>
</linearGradient>
<linearGradient id="paint46_linear_2036_4975" x1="476.604" y1="312.992" x2="476.604" y2="342.41" gradientUnits="userSpaceOnUse">
<stop stop-color="#70A0FF"/>
<stop offset="1" stop-color="#353249" stop-opacity="0"/>
</linearGradient>
<linearGradient id="paint47_linear_2036_4975" x1="541.063" y1="210.07" x2="541.063" y2="224.738" gradientUnits="userSpaceOnUse">
<stop stop-color="#70A0FF"/>
<stop offset="1" stop-color="#353249" stop-opacity="0"/>
</linearGradient>
<linearGradient id="paint48_linear_2036_4975" x1="156.102" y1="73.7338" x2="156.102" y2="85.3054" gradientUnits="userSpaceOnUse">
<stop stop-color="#70A0FF"/>
<stop offset="1" stop-color="#353249" stop-opacity="0"/>
</linearGradient>
<linearGradient id="paint49_linear_2036_4975" x1="220.113" y1="60.5337" x2="220.113" y2="68.2753" gradientUnits="userSpaceOnUse">
<stop stop-color="#70A0FF"/>
<stop offset="1" stop-color="#353249" stop-opacity="0"/>
</linearGradient>
<linearGradient id="paint50_linear_2036_4975" x1="315.579" y1="283.492" x2="315.579" y2="298.161" gradientUnits="userSpaceOnUse">
<stop stop-color="#70A0FF"/>
<stop offset="1" stop-color="#353249" stop-opacity="0"/>
</linearGradient>
<linearGradient id="paint51_linear_2036_4975" x1="404.648" y1="0.719727" x2="404.648" y2="8.05387" gradientUnits="userSpaceOnUse">
<stop stop-color="#70A0FF"/>
<stop offset="1" stop-color="#353249" stop-opacity="0"/>
</linearGradient>
</defs>
</svg>
