<svg width="300" height="300" viewBox="0 0 300 300" fill="none" xmlns="http://www.w3.org/2000/svg">
<path d="M31.978 262.37C31.978 262.37 58.1086 245.318 64.3661 218.236C67.8617 203.107 67.052 183.853 64.0019 170.59C63.0545 166.47 56.9788 148.391 53.1987 142.927C58.367 149.178 67.0333 161.421 70.659 168.833C74.2846 176.245 80.2885 194.727 86.0182 195.013C91.7478 195.3 97.3659 189.884 101.066 183.821C104.766 177.757 108.552 169.978 108.552 169.978C108.552 169.978 105.57 190.504 96.5485 207.962C88.8259 221.646 79.2246 235.48 61.2462 247.503C45.3839 257.252 38.4215 259.767 31.978 262.37Z" fill="url(#paint0_radial_2036_4823)"/>
<path d="M67.6613 249.225C67.6613 249.225 103.925 225.668 112.675 188.153C117.563 167.196 116.497 140.51 112.308 122.12C111.007 116.407 102.639 91.334 97.4158 83.7512C104.56 92.4292 113.56 103.304 121.539 119.704C128.607 134.23 134.81 155.618 142.75 156.032C150.69 156.445 158.491 148.955 163.636 140.563C168.782 132.171 174.051 121.4 174.051 121.4C174.051 121.4 169.859 149.839 157.306 174.008C146.564 192.95 133.218 212.094 108.267 228.705C86.2552 242.171 76.5989 245.636 67.6613 249.225Z" fill="url(#paint1_linear_2036_4823)"/>
<path d="M1.34496 272.389C1.34496 272.389 21.6384 260.126 27.103 239.723C30.1557 228.325 30.0472 213.681 28.0796 203.529C27.4684 200.375 23.3297 186.485 20.6026 182.236C24.3633 187.119 30.623 196.645 33.1815 202.369C35.7401 208.093 39.8137 222.288 44.1576 222.656C48.5014 223.024 52.9106 219.059 55.88 214.551C58.8493 210.044 61.9294 204.235 61.9294 204.235C61.9294 204.235 59.1247 219.746 51.8143 232.767C45.5894 242.956 37.9339 253.21 23.9639 261.868C11.6607 268.855 6.30701 270.582 1.34496 272.389Z" fill="url(#paint2_radial_2036_4823)"/>
<path d="M268.022 250.42C268.022 250.42 241.892 233.369 235.634 206.286C232.139 191.157 232.948 171.903 235.998 158.64C236.946 154.52 243.022 136.441 246.802 130.978C241.633 137.229 232.967 149.471 229.341 156.883C225.716 164.295 219.712 182.777 213.982 183.064C208.253 183.35 202.634 177.934 198.935 171.871C195.235 165.808 191.449 158.028 191.449 158.028C191.449 158.028 194.431 178.554 203.452 196.013C211.175 209.696 220.776 223.53 238.754 235.553C254.617 245.303 261.579 247.817 268.022 250.42Z" fill="url(#paint3_radial_2036_4823)"/>
<path d="M232.339 237.275C232.339 237.275 196.076 213.719 187.325 176.204C182.437 155.246 183.504 128.56 187.692 110.17C188.994 104.458 197.362 79.3846 202.585 71.8018C195.44 80.4798 186.441 91.3548 178.461 107.754C171.393 122.28 165.191 143.669 157.251 144.082C149.311 144.496 141.509 137.006 136.364 128.614C131.219 120.221 125.949 109.45 125.949 109.45C125.949 109.45 130.141 137.889 142.694 162.059C153.436 181 166.783 200.145 191.734 216.756C213.745 230.221 223.402 233.686 232.339 237.275Z" fill="url(#paint4_linear_2036_4823)"/>
<path d="M298.655 260.439C298.655 260.439 278.362 248.176 272.897 227.773C269.844 216.375 269.953 201.732 271.92 191.579C272.532 188.425 276.67 174.535 279.397 170.286C275.637 175.169 269.377 184.695 266.818 190.419C264.26 196.144 260.186 210.338 255.842 210.706C251.499 211.075 247.089 207.109 244.12 202.602C241.151 198.094 238.071 192.285 238.071 192.285C238.071 192.285 240.875 207.796 248.186 220.817C254.411 231.006 262.066 241.26 276.036 249.918C288.339 256.905 293.693 258.632 298.655 260.439Z" fill="url(#paint5_radial_2036_4823)"/>
<path d="M112.072 244.596C112.072 244.596 157.065 218.287 169.743 173.58C176.825 148.605 177.068 116.386 173.079 93.9851C171.84 87.0265 163.203 56.3322 157.351 46.8953C165.453 57.7621 178.894 78.924 184.327 91.602C189.761 104.28 198.245 135.642 207.777 136.595C217.309 137.548 227.128 128.969 233.8 119.151C240.473 109.332 247.432 96.6542 247.432 96.6542C247.432 96.6542 240.759 130.685 224.268 159.091C210.255 181.302 193.097 203.607 162.117 222.195C134.854 237.161 123.034 240.783 112.072 244.596Z" fill="url(#paint6_linear_2036_4823)"/>
<ellipse cx="215.022" cy="99.2272" rx="17.6349" ry="17.1583" fill="#369FEB"/>
<path d="M185.674 225.701C185.674 225.701 140.682 199.392 128.004 154.685C120.921 129.71 120.678 97.4909 124.667 75.0898C125.907 68.1312 134.543 37.4369 140.396 28C132.293 38.8668 118.853 60.0287 113.419 72.7068C107.986 85.3848 99.5018 116.746 89.9695 117.7C80.4371 118.653 70.6188 110.074 63.9461 100.255C57.2735 90.437 50.3148 77.7589 50.3148 77.7589C50.3148 77.7589 56.9875 111.789 73.4785 140.196C87.4911 162.406 104.649 184.712 135.629 203.3C162.892 218.266 174.712 221.888 185.674 225.701Z" fill="url(#paint7_linear_2036_4823)"/>
<ellipse rx="17.6349" ry="17.1583" transform="matrix(-1 0 0 1 82.7247 80.3316)" fill="#369FEB"/>
<defs>
<radialGradient id="paint0_radial_2036_4823" cx="0" cy="0" r="1" gradientUnits="userSpaceOnUse" gradientTransform="translate(46.5699 254.293) rotate(-69.1131) scale(114.294 78.3473)">
<stop stop-color="#045DAB"/>
<stop offset="1" stop-color="#0580EE"/>
</radialGradient>
<linearGradient id="paint1_linear_2036_4823" x1="82.4073" y1="249.381" x2="156.943" y2="115.283" gradientUnits="userSpaceOnUse">
<stop stop-color="#369FEB"/>
<stop offset="1" stop-color="#4B68D2" stop-opacity="0.76"/>
</linearGradient>
<radialGradient id="paint2_radial_2036_4823" cx="0" cy="0" r="1" gradientUnits="userSpaceOnUse" gradientTransform="translate(7.45847 272.302) rotate(-61.6757) scale(90.1017 61.7637)">
<stop offset="0.572917" stop-color="#0564B9"/>
<stop offset="1" stop-color="#44A2EC" stop-opacity="0"/>
</radialGradient>
<radialGradient id="paint3_radial_2036_4823" cx="0" cy="0" r="1" gradientUnits="userSpaceOnUse" gradientTransform="translate(253.431 242.343) rotate(-110.887) scale(114.294 78.3473)">
<stop stop-color="#045DAB"/>
<stop offset="1" stop-color="#0580EE"/>
</radialGradient>
<linearGradient id="paint4_linear_2036_4823" x1="217.593" y1="237.432" x2="143.058" y2="103.334" gradientUnits="userSpaceOnUse">
<stop stop-color="#369FEB"/>
<stop offset="1" stop-color="#4B68D2" stop-opacity="0.29"/>
</linearGradient>
<radialGradient id="paint5_radial_2036_4823" cx="0" cy="0" r="1" gradientUnits="userSpaceOnUse" gradientTransform="translate(292.542 260.353) rotate(-118.324) scale(90.1017 61.7637)">
<stop offset="0.572917" stop-color="#0564B9"/>
<stop offset="1" stop-color="#44A2EC" stop-opacity="0"/>
</radialGradient>
<linearGradient id="paint6_linear_2036_4823" x1="185.948" y1="104.947" x2="165.93" y2="237.924" gradientUnits="userSpaceOnUse">
<stop stop-color="#369FEB"/>
<stop offset="1" stop-color="#5773DD"/>
</linearGradient>
<linearGradient id="paint7_linear_2036_4823" x1="111.799" y1="86.052" x2="131.817" y2="219.028" gradientUnits="userSpaceOnUse">
<stop stop-color="#369FEB"/>
<stop offset="1" stop-color="#5773DD"/>
</linearGradient>
</defs>
</svg>
