<svg width="300" height="151" viewBox="0 0 300 151" fill="none" xmlns="http://www.w3.org/2000/svg">
<path d="M256.383 43.9489C256.383 42.8856 255.673 41.8224 254.255 41.8224C253.191 41.8224 252.127 42.5312 252.127 43.9489C252.127 45.0122 252.837 46.0755 254.255 46.0755C255.319 46.0755 256.383 45.3666 256.383 43.9489Z" fill="#369FEB"/>
<path d="M245.745 51.0375C245.745 52.1008 246.454 53.1641 247.872 53.1641C249.291 53.1641 250 52.4552 250 51.0375C250 49.9742 249.291 48.911 247.872 48.911C246.454 48.911 245.745 49.9742 245.745 51.0375Z" fill="#369FEB"/>
<path d="M151.773 2.12659C151.773 1.06331 151.064 -6.80571e-08 149.646 -2.04167e-07C148.582 -3.0625e-07 147.518 0.708878 147.518 2.12659C147.518 3.18988 148.227 4.25318 149.646 4.25318C151.064 3.89875 151.773 3.18988 151.773 2.12659Z" fill="#369FEB"/>
<path d="M300 148.86C300 147.797 298.936 146.733 297.872 146.733C296.808 146.733 295.745 147.797 295.745 148.86C295.745 149.923 296.808 150.987 297.872 150.987C298.936 150.987 300 149.923 300 148.86Z" fill="#369FEB"/>
<path d="M268.794 99.5944C269.149 100.658 270.567 101.367 271.631 100.658C272.695 100.303 273.404 98.8856 272.695 97.8223C272.34 96.759 270.922 96.0502 269.858 96.759C268.794 97.4679 268.085 98.5311 268.794 99.5944Z" fill="#369FEB"/>
<path d="M259.574 101.012C258.51 101.366 257.801 102.784 258.51 103.847C258.865 104.911 260.283 105.619 261.347 104.911C262.411 104.556 263.12 103.138 262.411 102.075C262.056 101.012 260.993 100.657 259.574 101.012Z" fill="#369FEB"/>
<path d="M197.163 29.7719C196.809 30.8351 197.163 31.8985 198.227 32.6074C199.291 32.9618 200.355 32.6073 201.064 31.544C201.419 30.4807 201.064 29.4175 200 28.7086C198.936 27.9998 197.518 28.7086 197.163 29.7719Z" fill="#369FEB"/>
<path d="M197.163 40.759C197.518 39.6957 197.163 38.6325 196.099 37.9236C195.035 37.5692 193.972 37.9236 193.262 38.9869C192.908 40.0502 193.262 41.1135 194.326 41.8224C195.745 42.5312 196.808 41.8223 197.163 40.759Z" fill="#369FEB"/>
<path d="M151.773 74.7843L151.773 53.873C151.773 52.8097 151.064 52.1009 150 52.1009C148.937 52.1009 148.227 52.8097 148.227 53.873L148.227 74.7843C148.227 75.8476 148.937 76.5564 150 76.5564C151.064 76.5564 151.773 75.8476 151.773 74.7843Z" fill="#369FEB"/>
<path d="M250 109.518C251.064 109.164 251.419 108.101 251.064 107.037C250.709 105.974 249.646 105.62 248.582 105.974L212.057 121.214C211.348 121.569 210.993 122.278 210.993 122.987C210.993 123.341 210.993 123.341 210.993 123.695C211.348 124.759 212.412 125.113 213.475 124.759L250 109.518Z" fill="#369FEB"/>
<path d="M186.524 131.493C185.815 131.847 185.461 132.556 185.461 133.265C185.461 133.62 185.461 133.62 185.461 133.974C185.815 135.037 186.879 135.392 187.943 135.037L202.482 128.658C203.546 128.303 203.9 127.24 203.546 126.177C203.191 125.113 202.127 124.759 201.063 125.113L186.524 131.493Z" fill="#369FEB"/>
<path d="M218.44 77.6197C218.085 77.9742 217.731 78.3287 217.731 79.0375C217.731 79.392 218.085 80.1008 218.44 80.4552C219.149 81.1641 220.213 81.1641 220.922 80.4552L241.49 59.8983C242.199 59.1895 242.199 58.1262 241.49 57.4174C240.78 56.7085 239.717 56.7085 239.007 57.4174L218.44 77.6197Z" fill="#369FEB"/>
<path d="M177.305 119.088C176.951 119.443 176.596 119.797 176.596 120.506C176.596 120.86 176.951 121.569 177.305 121.924C178.015 122.632 179.078 122.632 179.788 121.924L212.412 88.9617C213.121 88.2529 213.121 87.1895 212.412 86.4807C211.703 85.7718 210.639 85.7718 209.929 86.4807L177.305 119.088Z" fill="#369FEB"/>
<path d="M239.362 131.138C239.007 130.075 238.298 129.366 237.234 129.721L198.227 137.518C197.163 137.518 196.809 138.581 196.809 139.29L196.809 139.645C197.163 140.708 197.873 141.417 198.936 141.062L237.943 133.265C239.007 132.911 239.717 131.847 239.362 131.138Z" fill="#369FEB"/>
<path d="M189.362 120.151C188.653 120.506 188.653 121.214 188.653 121.569C188.653 121.923 188.653 122.278 189.007 122.632C189.717 123.341 190.78 123.695 191.49 122.987L230.851 96.7589C231.561 96.0501 231.915 94.9867 231.206 94.2779C230.497 93.569 229.433 93.2146 228.724 93.9234L189.362 120.151Z" fill="#369FEB"/>
<path d="M177.305 87.544L192.199 53.5188C192.554 52.4556 192.199 51.3922 191.135 51.0378C190.071 50.6834 189.007 51.0379 188.653 52.1012L173.759 86.1263C173.759 86.4807 173.759 86.4807 173.759 86.8351C173.759 87.5439 174.114 88.2528 174.823 88.6072C175.887 88.9617 176.951 88.6073 177.305 87.544Z" fill="#369FEB"/>
<path d="M167.021 111.999L172.695 98.1765C173.049 97.1132 172.695 96.0499 171.631 95.6955C170.567 95.341 169.503 95.6955 169.148 96.7588L163.475 110.581C163.475 110.936 163.475 110.936 163.475 111.29C163.475 111.999 163.829 112.708 164.539 113.062C165.602 113.417 166.666 113.062 167.021 111.999Z" fill="#369FEB"/>
<path d="M212.411 52.101L192.553 81.8729C192.198 82.2274 192.198 82.5817 192.198 82.9362C192.198 83.645 192.553 83.9995 192.908 84.354C193.617 85.0628 195.035 84.7084 195.39 83.9995L215.248 54.2276C215.957 53.5187 215.603 52.101 214.893 51.7465C214.184 51.0377 213.12 51.0377 212.411 52.101Z" fill="#369FEB"/>
<path d="M174.114 116.252L189.007 93.9233C189.717 93.2145 189.362 91.7968 188.653 91.4424C187.943 90.7335 186.525 91.0879 186.17 91.7967L171.277 114.126C170.922 114.48 170.922 114.835 170.922 115.189C170.922 115.898 171.277 116.252 171.631 116.607C172.341 117.316 173.404 116.961 174.114 116.252Z" fill="#369FEB"/>
<path d="M167.021 63.7973C165.958 63.4428 164.894 64.1517 164.894 65.215L157.801 100.658L157.801 101.012C157.801 101.721 158.511 102.784 159.22 102.784C160.284 103.139 161.348 102.43 161.348 101.367L168.44 65.9239C168.44 64.8606 167.731 63.7973 167.021 63.7973Z" fill="#369FEB"/>
<path d="M289.716 148.86C289.716 147.797 288.653 146.733 287.589 146.733C286.525 146.733 285.461 147.797 285.461 148.86C285.461 149.923 286.525 150.987 287.589 150.987C288.653 150.987 289.716 149.923 289.716 148.86Z" fill="#369FEB"/>
<path d="M265.248 148.86C265.248 149.923 265.957 150.632 267.021 150.632L272.695 150.632L276.241 150.632C277.305 150.632 278.014 149.923 278.014 148.86C278.014 147.797 277.305 147.088 276.241 147.088L272.695 147.088L267.021 147.088C266.312 147.088 265.248 147.797 265.248 148.86Z" fill="#369FEB"/>
<path d="M234.397 148.86C234.397 149.923 235.106 150.632 236.17 150.632L248.227 150.632L255.319 150.632C256.383 150.632 257.092 149.923 257.092 148.86C257.092 147.797 256.383 147.088 255.319 147.088L248.227 147.088L236.17 147.088C235.106 147.088 234.397 147.796 234.397 148.86Z" fill="#369FEB"/>
<path d="M188.652 148.86C188.652 149.923 189.361 150.632 190.425 150.632L211.347 150.632L223.759 150.632C224.822 150.632 225.532 149.923 225.532 148.86C225.532 147.797 224.822 147.088 223.759 147.088L211.347 147.088L190.425 147.088C189.361 147.088 188.652 147.796 188.652 148.86Z" fill="#369FEB"/>
<path d="M4.25525 148.86C4.25525 147.797 3.1914 146.733 2.12757 146.733C1.06374 146.733 -5.7327e-06 147.797 -5.74336e-06 148.86C-5.75401e-06 149.923 1.06374 150.987 2.12757 150.987C3.1914 150.987 4.25525 149.923 4.25525 148.86Z" fill="#369FEB"/>
<path d="M47.5179 43.9489C47.5179 42.8856 46.8086 41.8224 45.3902 41.8224C44.3264 41.8224 43.2625 42.5312 43.2625 43.9489C43.2625 45.0122 43.9718 46.0755 45.3902 46.0755C46.454 46.0755 47.5179 45.3666 47.5179 43.9489Z" fill="#369FEB"/>
<path d="M53.9005 51.0375C53.9005 49.9742 53.1913 48.911 51.7728 48.911C50.709 48.911 49.6453 49.6198 49.6453 51.0375C49.6453 52.1008 50.3544 53.1641 51.7728 53.1641C53.1913 53.1641 53.9005 52.1008 53.9005 51.0375Z" fill="#369FEB"/>
<path d="M151.419 13.114C151.773 12.7596 152.128 12.4052 152.128 11.6963C152.128 10.9874 151.773 10.6329 151.419 10.2785C151.064 9.92407 150.71 9.5697 150 9.5697C149.291 9.5697 148.937 9.92406 148.582 10.2785C148.227 10.6329 147.873 10.9874 147.873 11.6963C147.873 12.7596 148.582 13.8228 150 13.8228C150.355 13.8228 151.064 13.4684 151.419 13.114Z" fill="#369FEB"/>
<path d="M14.5389 148.86C14.5389 147.797 13.4752 146.733 12.4114 146.733C11.3475 146.733 10.2837 147.797 10.2837 148.86C10.2837 149.923 11.3475 150.987 12.4114 150.987C13.4752 150.987 14.5389 149.923 14.5389 148.86Z" fill="#369FEB"/>
<path d="M31.2053 99.5943C31.5599 98.5311 31.2053 97.1134 30.1415 96.759C29.0777 96.4045 27.6591 96.7589 27.3045 97.8222C26.9499 98.8855 27.3046 100.303 28.3684 100.658C29.4323 101.366 30.8507 101.012 31.2053 99.5943Z" fill="#369FEB"/>
<path d="M41.489 103.847C41.8436 102.784 41.489 101.366 40.4252 101.012C39.3613 100.657 37.9428 101.012 37.5882 102.075C37.2336 103.138 37.5883 104.556 38.6521 104.911C39.716 105.619 40.7797 104.911 41.489 103.847Z" fill="#369FEB"/>
<path d="M102.837 29.7719C102.482 28.7086 101.063 27.9998 99.9996 28.7086C98.9358 29.0631 98.5812 30.4807 98.9358 31.544C99.2904 32.6073 100.709 33.3162 101.773 32.6074C102.482 31.8985 103.191 30.8352 102.837 29.7719Z" fill="#369FEB"/>
<path d="M106.383 39.3416C106.029 38.2783 104.61 37.5695 103.546 38.2783C102.482 38.6328 102.128 40.0504 102.482 41.1137C102.837 42.177 104.256 42.8858 105.319 42.177C106.383 41.4681 107.092 40.4049 106.383 39.3416Z" fill="#369FEB"/>
<path d="M26.9502 147.088L23.4041 147.088C22.3403 147.088 21.6311 147.797 21.6311 148.86C21.6311 149.923 22.3403 150.632 23.4041 150.632L26.9502 150.632L32.624 150.632C33.6878 150.632 34.397 149.923 34.397 148.86C34.397 147.797 33.6878 147.088 32.624 147.088L26.9502 147.088Z" fill="#369FEB"/>
<path d="M51.7729 147.088L44.6807 147.088C43.6169 147.088 42.9077 147.796 42.9077 148.86C42.9077 149.923 43.6169 150.632 44.6807 150.632L51.7729 150.632L63.8297 150.632C64.8936 150.632 65.6028 149.923 65.6028 148.86C65.6028 147.797 64.8936 147.088 63.8297 147.088L51.7729 147.088Z" fill="#369FEB"/>
<path d="M88.6529 147.088L76.2416 147.088C75.1778 147.088 74.4685 147.796 74.4685 148.86C74.4685 149.923 75.1778 150.632 76.2416 150.632L88.6529 150.632L109.575 150.632C110.639 150.632 111.348 149.923 111.348 148.86C111.348 147.797 110.639 147.088 109.575 147.088L88.6529 147.088Z" fill="#369FEB"/>
<path d="M150 40.7594C151.064 40.7594 151.773 40.0505 151.773 38.9872L151.773 23.0379C151.773 21.9747 151.064 21.2658 150 21.2658C148.937 21.2658 148.227 21.9747 148.227 23.0379L148.227 38.9872C148.227 39.6961 148.937 40.7594 150 40.7594Z" fill="#369FEB"/>
<path d="M148.227 83.9997L148.227 108.101C148.227 109.164 148.937 109.873 150 109.873C151.064 109.873 151.773 109.164 151.773 108.101L151.773 83.9997C151.773 82.9365 151.064 82.2276 150 82.2276C148.937 82.2276 148.227 82.9365 148.227 83.9997Z" fill="#369FEB"/>
<path d="M89.0073 123.695C89.0073 123.341 89.0073 123.341 89.0073 122.987C89.0073 122.278 88.6528 121.569 87.9435 121.214L51.4188 105.974C50.3549 105.62 49.291 105.974 48.9364 107.037C48.5818 108.101 48.9364 109.164 50.0002 109.518L86.5251 124.759C87.2343 125.113 88.2981 124.404 89.0073 123.695Z" fill="#369FEB"/>
<path d="M114.184 133.974C114.184 133.62 114.184 133.62 114.184 133.265C114.184 132.556 113.83 131.847 113.12 131.493L98.5813 125.113C97.5175 124.759 96.4536 125.113 96.099 126.177C95.7444 127.24 96.0991 128.303 97.1629 128.658L111.702 135.037C112.766 135.392 113.83 135.037 114.184 133.974Z" fill="#369FEB"/>
<path d="M81.9145 79.0374C81.9145 78.6829 81.5599 77.974 81.2053 77.6196L60.6379 57.0628C59.9287 56.3539 58.8649 56.3539 58.1557 57.0628C57.4465 57.7716 57.4465 58.835 58.1557 59.5438L78.723 80.1006C79.4322 80.8095 80.4961 80.8095 81.2053 80.1006C81.5599 79.7462 81.9145 79.3918 81.9145 79.0374Z" fill="#369FEB"/>
<path d="M122.34 121.569C122.695 121.215 123.049 120.86 123.049 120.151C123.049 119.797 122.695 119.088 122.34 118.734L89.7159 85.7718C89.0067 85.063 87.9429 85.063 87.2336 85.7718C86.5244 86.4807 86.5244 87.5439 87.2336 88.2527L119.858 121.215C120.567 122.278 121.631 122.278 122.34 121.569Z" fill="#369FEB"/>
<path d="M102.836 139.645L102.836 139.29C102.836 138.581 102.127 137.518 101.418 137.518L62.4109 129.721C61.347 129.366 60.2833 130.075 60.2833 131.138C59.9287 132.202 60.6379 133.265 61.7017 133.265L100.709 141.062C101.773 141.062 102.836 140.354 102.836 139.645Z" fill="#369FEB"/>
<path d="M108.156 123.341C108.866 124.05 110.284 123.696 110.639 122.987C110.993 122.632 110.993 122.278 110.993 121.923C110.993 121.215 110.639 120.86 110.284 120.506L70.9224 94.278C70.2132 93.5692 68.7947 93.9236 68.4401 94.6325C67.7309 95.3413 68.0855 96.759 68.7947 97.1134L108.156 123.341Z" fill="#369FEB"/>
<path d="M108.51 51.392C107.447 51.7464 107.092 52.8097 107.447 53.873L122.34 87.8982C122.695 88.9615 123.759 89.3158 124.823 88.9614C125.532 88.607 125.886 87.8981 125.886 87.1893C125.886 86.8349 125.886 86.8348 125.886 86.4804L110.993 52.4553C110.638 51.3921 109.574 51.0376 108.51 51.392Z" fill="#369FEB"/>
<path d="M128.014 95.6955C126.95 96.0499 126.596 97.1132 126.95 98.1765L132.624 111.999C132.979 113.062 134.042 113.417 135.106 113.062C135.815 112.708 136.17 111.999 136.17 111.29C136.17 110.936 136.17 110.936 136.17 110.581L130.496 96.7588C130.142 95.6955 129.078 95.341 128.014 95.6955Z" fill="#369FEB"/>
<path d="M107.802 82.9361C107.802 82.5816 107.801 82.2273 107.447 81.8728L87.5887 52.1009C86.8795 51.392 85.8157 51.0376 85.1065 51.7464C84.3973 52.4553 84.0426 53.5186 84.7519 54.2275L104.61 83.9994C105.319 84.7083 106.383 85.0627 107.092 84.3539C107.447 83.9995 107.802 83.2905 107.802 82.9361Z" fill="#369FEB"/>
<path d="M110.993 93.9233L125.887 116.252C126.596 116.961 127.66 117.316 128.369 116.607C129.078 116.252 129.078 115.543 129.078 115.189C129.078 114.835 129.078 114.48 128.724 114.126L113.83 91.7967C113.121 91.0879 112.057 90.7335 111.348 91.4424C110.638 91.7968 110.284 92.86 110.993 93.9233Z" fill="#369FEB"/>
<path d="M140.78 103.139C141.843 103.139 142.198 102.075 142.198 101.366L142.198 101.012L135.106 65.5692C134.751 64.5059 134.042 63.797 132.978 64.1515C131.914 64.5059 131.205 65.2148 131.56 66.2781L138.652 101.721C138.652 102.43 139.716 103.139 140.78 103.139Z" fill="#369FEB"/>
</svg>
